<svg width="18" height="18" viewBox="0 0 18 18" fill="white" xmlns="http://www.w3.org/2000/svg">
<path fill-rule="evenodd" clip-rule="evenodd" d="M0.75 16.5C0.75 16.3424 0.798607 16.1962 0.881647 16.0754C1.42416 15.2616 1.6164 14.9637 1.69829 14.7479C1.79994 14.4799 1.83219 14.3638 1.84599 14.2654C1.85979 14.1669 1.86071 14.0464 1.83664 13.7609C1.82966 13.6781 1.78994 13.4901 1.67388 13.0954C1.56298 12.7183 1.40063 12.2104 1.17858 11.5159C0.936196 10.7579 0.75 9.88943 0.75 9C0.75 4.44365 4.44365 0.75 9 0.75C13.5563 0.75 17.25 4.44365 17.25 9C17.25 13.5563 13.5563 17.25 9 17.25H1.5C1.08579 17.25 0.75 16.9142 0.75 16.5Z"/>
</svg>
