<svg width="18" height="18" viewBox="0 0 18 18" fill="none" xmlns="http://www.w3.org/2000/svg">
<path fill-rule="evenodd" clip-rule="evenodd" d="M7.9 0.75L7.867 0.75C6.77486 0.749994 5.90936 0.74999 5.21173 0.806988C4.49835 0.865274 3.89472 0.986882 3.34355 1.26772C2.44978 1.72312 1.72312 2.44978 1.26772 3.34355C0.986882 3.89472 0.865274 4.49834 0.806988 5.21173C0.74999 5.90936 0.749994 6.77485 0.75 7.867L0.75 7.9V10.1L0.75 10.133C0.749994 11.2251 0.74999 12.0906 0.806988 12.7883C0.865274 13.5017 0.986882 14.1053 1.26772 14.6565C1.72312 15.5502 2.44978 16.2769 3.34355 16.7323C3.89472 17.0131 4.49834 17.1347 5.21173 17.193C5.90935 17.25 6.77484 17.25 7.86698 17.25H7.9H10.1H10.133C11.2252 17.25 12.0906 17.25 12.7883 17.193C13.5017 17.1347 14.1053 17.0131 14.6565 16.7323C15.5502 16.2769 16.2769 15.5502 16.7323 14.6565C17.0131 14.1053 17.1347 13.5017 17.193 12.7883C17.25 12.0906 17.25 11.2252 17.25 10.133V10.1V7.9V7.86698C17.25 6.77484 17.25 5.90935 17.193 5.21173C17.1347 4.49835 17.0131 3.89472 16.7323 3.34355C16.2769 2.44978 15.5502 1.72312 14.6565 1.26772C14.1053 0.986882 13.5017 0.865274 12.7883 0.806988C12.0906 0.74999 11.2251 0.749994 10.133 0.75L10.1 0.75H7.9ZM5.66669 6.58333C6.0809 6.58333 6.41669 6.91912 6.41669 7.33333V12.3333C6.41669 12.7475 6.0809 13.0833 5.66669 13.0833C5.25248 13.0833 4.91669 12.7475 4.91669 12.3333V7.33333C4.91669 6.91912 5.25248 6.58333 5.66669 6.58333ZM9.75002 5.66667C9.75002 5.25245 9.41424 4.91667 9.00002 4.91667C8.58581 4.91667 8.25002 5.25245 8.25002 5.66667V12.3333C8.25002 12.7475 8.58581 13.0833 9.00002 13.0833C9.41424 13.0833 9.75002 12.7475 9.75002 12.3333V5.66667ZM12.3334 8.25C12.7476 8.25 13.0834 8.58578 13.0834 9V12.3333C13.0834 12.7475 12.7476 13.0833 12.3334 13.0833C11.9191 13.0833 11.5834 12.7475 11.5834 12.3333V9C11.5834 8.58578 11.9191 8.25 12.3334 8.25Z" fill="white"/>
</svg>
