<svg width="18" height="19" viewBox="0 0 18 19" fill="none" xmlns="http://www.w3.org/2000/svg">
<path fill-rule="evenodd" clip-rule="evenodd" d="M6.4167 0.833252C6.4167 0.419038 6.08091 0.0832519 5.6667 0.083252C5.25248 0.083252 4.9167 0.419038 4.9167 0.833252V1.79677C4.70161 1.81879 4.50607 1.85114 4.32076 1.89863C2.64096 2.32915 1.32926 3.64085 0.898745 5.32065C0.749683 5.90226 0.749812 6.58462 0.750015 7.65592L0.75003 7.7777V11.0999L0.75003 11.1329C0.750024 12.2251 0.75002 13.0906 0.807018 13.7882C0.865304 14.5016 0.986912 15.1052 1.26775 15.6564C1.72315 16.5501 2.44981 17.2768 3.34358 17.7322C3.89475 18.013 4.49837 18.1346 5.21176 18.1929C5.90938 18.2499 6.77487 18.2499 7.86699 18.2499H7.86706H7.90003H10.1H10.133H10.1331C11.2252 18.2499 12.0907 18.2499 12.7883 18.1929C13.5017 18.1346 14.1053 18.013 14.6565 17.7322C15.5503 17.2768 16.2769 16.5501 16.7323 15.6564C17.0131 15.1052 17.1348 14.5016 17.193 13.7882C17.25 13.0906 17.25 12.2251 17.25 11.133V11.1329V11.0999V8.89992V8.86695V8.86688C17.25 7.77475 17.25 6.90927 17.193 6.21165C17.1348 5.49826 17.0131 4.89464 16.7323 4.34346C16.2769 3.44969 15.5503 2.72304 14.6565 2.26764C14.1829 2.02636 13.6707 1.90261 13.0834 1.83557V0.833252C13.0834 0.419038 12.7476 0.0832519 12.3334 0.083252C11.9191 0.083252 11.5834 0.419038 11.5834 0.833252V1.75664C11.1498 1.74991 10.6687 1.74992 10.133 1.74992L10.1 1.74992H6.77781L6.65603 1.7499L6.4167 1.74993V0.833252ZM4.08336 6.66658C4.08336 6.25237 4.41915 5.91658 4.83336 5.91658H13.1667C13.5809 5.91658 13.9167 6.25237 13.9167 6.66658C13.9167 7.0808 13.5809 7.41658 13.1667 7.41658H4.83336C4.41915 7.41658 4.08336 7.0808 4.08336 6.66658Z" fill="white"/>
</svg>
