<svg width="44" height="44" viewBox="0 0 44 44" fill="none" xmlns="http://www.w3.org/2000/svg">
<path d="M41.25 8.04517V35.9549H2.75V8.04517H41.25Z" fill="#2DCC9F"/>
<path d="M33.3197 11.7439C32.6106 11.5943 31.8714 11.7042 31.2365 12.0536C30.6016 12.4031 30.1132 12.9689 29.8603 13.6481C29.6074 14.3272 29.6067 15.0746 29.8584 15.7542C30.1101 16.4338 30.5974 17.0005 31.2317 17.3511C31.8659 17.7018 32.605 17.813 33.3144 17.6647C34.0238 17.5163 34.6563 17.1182 35.0969 16.5428C35.5375 15.9674 35.7569 15.2529 35.7151 14.5294C35.6734 13.8059 35.3733 13.1214 34.8694 12.6005C34.4492 12.1676 33.9098 11.8694 33.3197 11.7439ZM24.9034 27.6375C22.4064 24.1652 19.9085 20.6933 17.4096 17.2219L6.29688 32.6783H21.2844C22.4907 30.9989 23.698 29.3201 24.9061 27.6417M30.3291 22C27.7689 25.5585 25.2095 29.1175 22.6511 32.6769H38.0085C35.4501 29.1175 32.8903 25.5585 30.3291 22Z" fill="white"/>
</svg>
