<svg width="44" height="44" viewBox="0 0 44 44" fill="none" xmlns="http://www.w3.org/2000/svg">
<path d="M19.4524 43.8449C16.4119 43.5055 13.4771 42.5274 10.8398 40.9745C19.0906 32.3602 23.2509 17.9885 14.7151 1.16397C14.7468 1.15228 14.7768 1.13892 14.8085 1.12891C24.0513 12.0609 27.2162 35.5077 19.4524 43.8449Z" fill="white"/>
<path d="M30.5986 42.2592C28.7816 43.0451 26.8656 43.5777 24.9041 43.8421C23.2633 36.0677 31.7541 22.7814 40.4768 18.7422C31.4023 26.004 29.1395 34.8755 30.5986 42.2592Z" fill="white"/>
<path d="M10.8553 41.0126L10.8087 40.9842C10.6269 40.8757 10.4468 40.7672 10.2634 40.6503C10.2317 40.6302 10.2 40.6119 10.17 40.5902C10.14 40.5685 10.11 40.5501 10.0766 40.5284C9.99825 40.4816 9.92488 40.4315 9.84984 40.3814C9.77481 40.3313 9.70144 40.2829 9.6264 40.2295C9.42797 40.0959 9.22954 39.9556 9.03278 39.8137C9.01777 39.8004 9.00276 39.792 8.98609 39.7787C8.84935 39.6801 8.71262 39.5766 8.57922 39.4714C8.53587 39.4397 8.49585 39.4096 8.45249 39.3746C8.40914 39.3395 8.41914 39.3462 8.39913 39.3345C8.23238 39.2009 8.06563 39.064 7.89889 38.9271C7.87054 38.902 7.83886 38.877 7.81218 38.8519C7.70212 38.7618 7.59374 38.6683 7.48868 38.5731C7.44866 38.5414 7.40698 38.508 7.36696 38.4696C7.3452 38.4472 7.32179 38.4266 7.29692 38.4078C7.26524 38.3794 7.23189 38.3493 7.20021 38.3176C7.07015 38.1996 6.94175 38.0794 6.81502 37.9569C6.68829 37.8367 6.56323 37.7148 6.43983 37.5879L6.33145 37.4777C6.32144 37.466 6.31311 37.4543 6.3031 37.4443L6.27475 37.4159C6.19471 37.3358 6.10801 37.249 6.0363 37.1705C5.9646 37.092 5.88456 37.0035 5.80619 36.9217C5.65778 36.7547 5.50771 36.5877 5.36264 36.4208L5.30428 36.3523C5.15087 36.1853 5.00913 36.0016 4.86239 35.8213C4.86239 35.8079 4.84405 35.7996 4.83738 35.7862C4.69231 35.6092 4.55224 35.4256 4.41551 35.2452C4.27877 35.0649 4.12703 34.8579 3.98696 34.6575C3.93027 34.5807 3.88191 34.5055 3.82021 34.4287C3.75852 34.3519 3.7185 34.2718 3.66514 34.195C3.63345 34.1515 3.60344 34.1015 3.57176 34.0547C3.54007 34.0079 3.51006 33.9612 3.48171 33.9144C3.45337 33.8677 3.42335 33.8276 3.39167 33.7809C3.35999 33.7341 3.35165 33.7157 3.32997 33.6857L3.29162 33.6222C3.26827 33.5855 3.24493 33.5454 3.22325 33.507C3.20157 33.4686 3.1799 33.4369 3.15822 33.3985L3.09319 33.2899C3.0565 33.2282 3.01982 33.1664 2.98147 33.1063C2.94311 33.0462 2.92977 33.0194 2.90643 32.976C2.88309 32.9326 2.8414 32.8675 2.81138 32.8091C2.80138 32.794 2.79304 32.7757 2.78304 32.759C2.73635 32.6755 2.69299 32.592 2.6463 32.5085L2.62796 32.4734C2.5746 32.3766 2.52458 32.2847 2.47622 32.1879C2.45121 32.1345 2.42286 32.0844 2.39785 32.0359L2.32281 31.8957C2.31261 31.8697 2.30034 31.8446 2.28612 31.8205C2.24277 31.7337 2.20275 31.6536 2.16273 31.5601C2.12271 31.4666 2.05601 31.338 2.00432 31.2261C1.98431 31.186 1.96597 31.146 1.94762 31.1026C1.92928 31.0591 1.91094 31.0241 1.89427 30.984L1.71751 30.5833C1.66749 30.4647 1.61913 30.3461 1.57244 30.2293C1.52575 30.1124 1.4874 30.0172 1.45071 29.912C1.41403 29.8068 1.36067 29.6682 1.31398 29.548C1.26729 29.4278 1.23894 29.3426 1.20226 29.2374C1.18725 29.1923 1.17224 29.1473 1.15557 29.1022C1.15557 29.0905 1.15557 29.0805 1.14723 29.0721L1.10888 28.9686C1.02884 28.7148 0.94213 28.4677 0.873763 28.2072C0.838746 28.0886 0.808731 27.9767 0.773714 27.8599C0.738697 27.743 0.712017 27.6261 0.68367 27.5109C0.653655 27.3957 0.625307 27.2788 0.59696 27.1569C0.578618 27.0784 0.560275 27.0049 0.543601 26.9298C0.543601 26.8964 0.528593 26.858 0.520256 26.8246C0.491909 26.7027 0.463561 26.5758 0.441884 26.4506C0.420207 26.3253 0.39186 26.2118 0.370182 26.0899C0.35184 25.9964 0.333497 25.9046 0.31849 25.8111C0.293478 25.6608 0.268465 25.5155 0.246788 25.3652C0.246788 25.3352 0.236783 25.3001 0.230113 25.2701C0.211771 25.1365 0.193429 24.9996 0.175086 24.8676C0.175086 24.8509 0.175086 24.8393 0.175086 24.8242C0.150074 24.6406 0.131731 24.4569 0.116724 24.2699C0.116724 24.2365 0.106719 24.1981 0.103384 24.1647C0.0883768 24.0144 0.0767043 23.8624 0.0666994 23.7105C0.0666994 23.6571 0.0566945 23.607 0.0550271 23.5552C0.0533596 23.5034 0.0450221 23.43 0.0416872 23.3682C0.0383522 23.3064 0.0316823 23.2229 0.0300148 23.1511C0.0200099 23.0142 0.0133398 22.8773 0.0100048 22.7404C0.0100048 22.6869 0.0100048 22.6368 0.0100048 22.5851C0.0100048 22.3981 0 22.211 0 22.0257C0 21.8487 0 21.6734 0 21.4997C0 21.3661 -5.09374e-08 21.2326 0.0116724 21.099C0.0116724 21.0272 0.0116723 20.9587 0.0250122 20.8869C0.0383521 20.8151 0.0250123 20.7784 0.0333497 20.7199C0.0333497 20.583 0.0500245 20.4494 0.058362 20.3125C0.0733693 20.1372 0.0900443 19.9669 0.105052 19.7966C0.105052 19.7865 0.105052 19.7765 0.105052 19.7715C0.105052 19.7665 0.105052 19.7515 0.105052 19.7431C0.120059 19.5661 0.141736 19.3891 0.163414 19.2138C0.185091 19.0385 0.206768 18.8966 0.231781 18.7379C0.234608 18.7132 0.239064 18.6886 0.245121 18.6645C0.303483 18.2621 0.37852 17.868 0.458559 17.4723C0.490241 17.3303 0.516921 17.1867 0.551938 17.0431C0.573616 16.9563 0.591958 16.8661 0.613635 16.7793C0.635312 16.6925 0.648652 16.6424 0.666995 16.5739C0.670424 16.5541 0.675443 16.5345 0.682002 16.5155C0.692007 16.4754 0.700345 16.4337 0.713684 16.3936C0.727024 16.3535 0.735362 16.3101 0.743699 16.2734L0.763709 16.2016C0.782051 16.1298 0.803729 16.0613 0.825406 15.9895V15.9528C0.835411 15.9244 0.842081 15.8927 0.850418 15.8659C0.882101 15.7541 0.913783 15.6439 0.947133 15.532C0.955837 15.5108 0.96308 15.489 0.96881 15.4669C1.02217 15.2999 1.0772 15.1329 1.13556 14.9542C1.15057 14.9042 1.16891 14.8524 1.18392 14.8023C1.21893 14.7021 1.25228 14.6053 1.29064 14.5067C1.29681 14.4853 1.30519 14.4646 1.31565 14.445C1.37734 14.278 1.43904 14.111 1.50741 13.944C1.57578 13.7771 1.63747 13.6101 1.70584 13.4431C1.77421 13.2761 1.8359 13.1375 1.90427 12.9889C1.96096 12.8654 2.01599 12.7435 2.07102 12.6182C2.12605 12.493 2.18608 12.3761 2.24777 12.2559C2.29113 12.1657 2.33448 12.0756 2.38117 11.9871L2.42786 11.8936C2.46455 11.8234 2.5029 11.7483 2.54625 11.6765C2.61962 11.5279 2.70466 11.3776 2.78804 11.2323C2.8464 11.1238 2.9131 11.0136 2.9748 10.8984L3.01815 10.8249C3.15489 10.5945 3.29495 10.3641 3.44003 10.137C3.48338 10.0618 3.5334 9.9917 3.58009 9.9199C3.62678 9.8481 3.67347 9.7763 3.72016 9.70784L3.7285 9.69281C3.79353 9.59597 3.8619 9.49912 3.93027 9.40561C3.99863 9.31211 4.07367 9.19856 4.14704 9.11173C4.16538 9.08335 4.18372 9.0583 4.2054 9.02992C4.32379 8.86294 4.44885 8.69596 4.57558 8.539C4.59466 8.5101 4.61525 8.48223 4.63728 8.45552L4.8824 8.14995C4.89144 8.13994 4.89979 8.12935 4.90741 8.11822C4.90741 8.11822 4.90741 8.11822 4.91742 8.10653L5.16587 7.80765C5.25592 7.69911 5.34596 7.59726 5.43601 7.49039L5.50104 7.41859C5.64945 7.25161 5.79952 7.08464 5.95126 6.92768C5.96571 6.90987 5.98239 6.8915 6.00129 6.87258C6.098 6.76905 6.19305 6.67387 6.2931 6.57035L6.30477 6.55866C6.34812 6.51191 6.39148 6.46849 6.43817 6.42508C6.48486 6.38167 6.53488 6.32489 6.58824 6.2748L6.62826 6.23807C6.72998 6.13788 6.83336 6.03936 6.93508 5.94252L7.29359 5.60856L7.3953 5.51673C7.42865 5.485 7.46701 5.45328 7.50036 5.42656C7.62875 5.31135 7.76215 5.19613 7.89555 5.09261L7.9289 5.06422L7.96392 5.03917C8.03562 4.98073 8.10899 4.91728 8.18403 4.85884C8.22071 4.82711 8.26406 4.79706 8.30242 4.76199L8.42081 4.66849C8.46131 4.63996 8.50027 4.60931 8.53753 4.57665L8.63091 4.50819L8.72429 4.43639L8.84602 4.34288C8.89271 4.30615 8.94107 4.27108 8.99109 4.23769L9.13783 4.12748L9.27456 4.03564C9.30458 4.0106 9.33626 3.98889 9.36461 3.96719C9.39629 3.94882 9.42797 3.92711 9.45799 3.90707C9.488 3.88704 9.54803 3.84195 9.59139 3.81524C9.67809 3.75512 9.75813 3.69668 9.84984 3.63991C9.89653 3.60986 9.94656 3.57813 9.99825 3.54139L10.0733 3.4913L10.15 3.43453C10.2434 3.37275 10.3434 3.31264 10.4401 3.25419C10.4592 3.24312 10.4776 3.23085 10.4952 3.21746C10.6102 3.149 10.7186 3.08054 10.8287 3.01208C10.845 2.99921 10.8629 2.98854 10.882 2.98035C10.9254 2.95531 10.9687 2.92692 11.0154 2.90354C11.1388 2.83174 11.2639 2.75994 11.3873 2.69482C11.564 2.59464 11.7408 2.50113 11.9209 2.40762C12.101 2.31412 12.281 2.22562 12.4645 2.14046C12.5428 2.10039 12.6312 2.06365 12.7013 2.02525C12.7713 1.98684 12.868 1.95178 12.943 1.91671C12.9647 1.91671 12.9897 1.89501 13.0147 1.88332C13.0403 1.87417 13.0654 1.86358 13.0898 1.85159C13.2198 1.79315 13.3499 1.73638 13.4833 1.68461C13.5268 1.66347 13.5713 1.64453 13.6167 1.62784C13.7568 1.5694 13.9002 1.51263 14.0419 1.46087C14.0753 1.44438 14.1098 1.43042 14.1453 1.41912C14.1758 1.40625 14.2069 1.3951 14.2387 1.38573C14.4054 1.32395 14.5555 1.26717 14.7156 1.21875C23.2681 18.0266 19.1061 32.3983 10.8553 41.0126Z" fill="#582669"/>
<path d="M44.0013 22.0042V22.0476C44.0013 22.2463 44.0013 22.4483 43.993 22.6454C43.9847 22.8424 43.9763 23.0578 43.9647 23.2632C43.9663 23.2882 43.9663 23.3133 43.9647 23.3383C43.9546 23.5153 43.9396 23.6923 43.9246 23.866C43.9248 23.9046 43.9215 23.9432 43.9146 23.9812C43.903 24.1482 43.8863 24.3051 43.8679 24.4637C43.8679 24.4888 43.8679 24.5172 43.8596 24.5405L43.8496 24.604C43.8379 24.7125 43.8212 24.8244 43.8096 24.938C43.7979 25.0515 43.7779 25.1584 43.7629 25.2719C43.7629 25.3137 43.7529 25.3537 43.7479 25.3938C43.7345 25.484 43.7195 25.5741 43.7012 25.661C43.6878 25.7444 43.6728 25.8279 43.6578 25.9064C43.6518 25.9311 43.6473 25.9562 43.6445 25.9816C43.6445 26.0033 43.6445 26.025 43.6328 26.0467C43.6111 26.1803 43.5861 26.3138 43.5578 26.4441C43.5478 26.4808 43.5428 26.5226 43.5328 26.5593L43.5228 26.5994L43.4677 26.8515C43.4461 26.9517 43.4244 27.0469 43.3994 27.1437C43.3744 27.2406 43.341 27.3892 43.3093 27.5111C43.2776 27.633 43.2376 27.7899 43.1976 27.9268C43.1876 27.9619 43.1793 27.9986 43.1659 28.037C43.1526 28.0754 43.1442 28.1172 43.1326 28.1573C43.0942 28.2908 43.0542 28.4211 43.0142 28.5497C43.0025 28.5897 42.9858 28.6331 42.9742 28.6732C42.9742 28.6832 42.9742 28.6882 42.9642 28.6983C42.8708 28.9905 42.7724 29.2827 42.669 29.5716C42.5773 29.827 42.4806 30.0725 42.3739 30.3246C42.3555 30.3647 42.3405 30.4081 42.3255 30.4482C42.3105 30.4883 42.2905 30.5333 42.2722 30.5734C42.2388 30.6536 42.2038 30.7404 42.1671 30.8189C42.1304 30.8973 42.0921 30.9858 42.0587 31.0643C42.0254 31.1428 42.0054 31.1829 41.9803 31.2313C41.9687 31.2563 41.9587 31.2814 41.9453 31.3064C41.932 31.3315 41.9236 31.3499 41.9153 31.3716C41.887 31.4317 41.8586 31.4868 41.8336 31.5385C41.7686 31.6738 41.7035 31.8074 41.6352 31.9376C41.5551 32.1046 41.4684 32.2582 41.3867 32.4135C41.305 32.5688 41.22 32.7274 41.1266 32.8827C41.0616 33.0013 40.9965 33.1131 40.9248 33.2283C40.8281 33.3953 40.7281 33.5539 40.6263 33.7159C40.5613 33.8178 40.4996 33.9213 40.4346 34.0181C40.3495 34.1417 40.2678 34.2669 40.1861 34.3905C40.1755 34.4069 40.1638 34.4225 40.1511 34.4372C40.0827 34.5374 40.011 34.6393 39.9393 34.7395C39.9158 34.7771 39.8902 34.8133 39.8626 34.848C39.8626 34.8564 39.8493 34.8697 39.841 34.8797C39.7943 34.9465 39.7442 35.015 39.6909 35.0834C39.6375 35.1519 39.6075 35.1987 39.5642 35.2504C39.5208 35.3022 39.4624 35.3873 39.4057 35.4558C39.3157 35.5744 39.2257 35.6879 39.1323 35.8031C39.1212 35.8162 39.1112 35.8302 39.1023 35.8449C39.0839 35.8666 39.0672 35.8849 39.0522 35.9066C38.9839 35.9835 38.9155 36.0653 38.8505 36.1454C38.7854 36.2256 38.7604 36.2573 38.7137 36.3124L38.5737 36.4794L38.5086 36.5512L38.3419 36.7282C38.2885 36.79 38.2368 36.8451 38.1751 36.9052C38.0451 37.0471 37.915 37.1874 37.7849 37.3209C37.6916 37.4178 37.5982 37.5113 37.5048 37.6048C37.4114 37.6983 37.318 37.7918 37.2213 37.882L36.9379 38.1658C36.8411 38.2527 36.7461 38.3428 36.646 38.4297C36.501 38.5599 36.3476 38.6901 36.1992 38.8187C36.0508 38.9473 35.8973 39.0725 35.7423 39.1944C35.6411 39.2779 35.5377 39.3597 35.4321 39.4399C35.2237 39.6068 35.0136 39.7571 34.7985 39.9124C34.6934 39.9876 34.585 40.0644 34.475 40.1395C34.3649 40.2146 34.2582 40.2915 34.1415 40.3633L33.808 40.5787C33.7646 40.6054 33.7196 40.6338 33.6763 40.6655C33.6602 40.6741 33.6446 40.6836 33.6296 40.6939L33.3878 40.8425C33.2794 40.9076 33.1743 40.9727 33.066 41.0328C32.7458 41.2187 32.4195 41.3991 32.0871 41.5738C31.9604 41.6423 31.8287 41.7074 31.6986 41.7692C31.5319 41.8493 31.3651 41.9362 31.1984 42.008C31.0316 42.0798 30.8349 42.1749 30.6514 42.2534C29.1924 34.8697 31.4552 25.9983 40.5296 18.7281C31.812 22.7723 23.3245 36.0586 24.962 43.833C24.8336 43.8514 24.7102 43.8664 24.5818 43.8815C24.4534 43.8965 24.285 43.9199 24.1316 43.9315C24.0732 43.9315 24.0148 43.9449 23.9548 43.9482C23.8281 43.9599 23.698 43.9699 23.5663 43.9783H23.5113H23.4279H23.4145C23.3929 43.98 23.3712 43.98 23.3495 43.9783L22.9243 44C22.8459 44 22.7692 44 22.6909 44H22.4557C22.3007 44 22.1422 44 21.9872 44C21.7754 44 21.5603 44 21.3502 43.99L21.0334 43.9783C20.9283 43.9783 20.8216 43.9683 20.7165 43.9616C20.5048 43.9499 20.298 43.9332 20.0896 43.9148C19.9779 43.9065 19.8695 43.8931 19.7561 43.8815C19.6427 43.8698 19.561 43.8631 19.4609 43.8497C27.2348 35.5643 24.0699 12.1175 14.8203 1.16717L15.1872 1.0436L15.559 0.92505L15.7258 0.874957L15.8925 0.828204C15.9942 0.798148 16.1009 0.766422 16.206 0.738036C16.311 0.70965 16.4178 0.684604 16.5262 0.657888L16.6929 0.611134C16.7463 0.597776 16.803 0.582748 16.8596 0.57106L17.3499 0.459186C17.5166 0.417441 17.7017 0.384046 17.8785 0.352321L18.0452 0.322265C18.1053 0.308907 18.1603 0.300557 18.212 0.290539L18.297 0.275512C18.3904 0.257144 18.4821 0.243786 18.5755 0.228758L18.7839 0.200372L19.0641 0.163637C19.1941 0.1436 19.3242 0.128572 19.4543 0.113544C19.4603 0.112059 19.4666 0.112059 19.4726 0.113544C19.6844 0.0884976 19.8961 0.0667909 20.1096 0.051763C20.243 0.0384048 20.3747 0.0300557 20.5081 0.0233766C20.537 0.021657 20.5659 0.021657 20.5948 0.0233766C20.6315 0.0233766 20.6682 0.0233766 20.7065 0.0233766H20.8183C20.87 0.0233766 20.9233 0.0133584 20.9767 0.0100188H20.995C21.0567 0.0100188 21.1217 0.0100188 21.1851 0.0100188C21.2902 0.0100188 21.3952 0 21.5036 0C21.6587 0 21.8171 0 21.9738 0C22.3557 0 22.7309 0.0100183 23.1061 0.0283857C23.2928 0.0384043 23.4796 0.0500929 23.6647 0.0651208C23.8498 0.0801487 24.0382 0.0968462 24.2249 0.115214L24.6752 0.165306L24.8236 0.183674C24.9753 0.202041 25.1287 0.223748 25.2771 0.248795L25.3488 0.258814C25.4822 0.277181 25.6123 0.298888 25.7424 0.323934C26.0075 0.367348 26.2709 0.420781 26.5311 0.472543L26.7895 0.529315L26.8329 0.537665L27.1064 0.604455C27.2047 0.626162 27.3048 0.651209 27.4015 0.674586C27.4532 0.691283 27.5066 0.702971 27.5683 0.717999L27.9401 0.818186C28.2736 0.911692 28.5888 1.01188 28.9089 1.11707C28.9956 1.14546 29.0857 1.17552 29.1724 1.20724L29.4375 1.30075H29.4558C29.6326 1.3642 29.8094 1.43266 29.9828 1.50112C30.1562 1.56958 30.3379 1.63971 30.5114 1.71485C30.5981 1.74991 30.6781 1.78665 30.7715 1.82672L31.0333 1.94194L31.5452 2.18405L32.0455 2.43619C32.2122 2.52302 32.379 2.60316 32.5457 2.70335C32.7124 2.80354 32.8942 2.90038 33.0676 2.9989C33.086 3.01226 33.1076 3.02061 33.1277 3.03396C33.2611 3.11077 33.3911 3.20094 33.5212 3.27274C33.6763 3.36625 33.828 3.46643 33.9781 3.56161L34.3266 3.79538C34.45 3.87887 34.5717 3.96235 34.6934 4.04918L34.7084 4.06254L34.7835 4.1143C34.8952 4.19278 35.0036 4.28128 35.117 4.35475L35.152 4.38314C35.287 4.48165 35.4221 4.58518 35.5522 4.69037C35.6822 4.79557 35.779 4.86737 35.8857 4.96087C35.9924 5.05438 36.1308 5.16626 36.2542 5.27145C36.3392 5.34325 36.4209 5.41839 36.5127 5.4952C36.5343 5.5119 36.5527 5.53026 36.5743 5.54863L36.8328 5.7824C36.9379 5.87758 37.0412 5.97776 37.143 6.07461C37.3197 6.24158 37.4937 6.41357 37.6649 6.59057C37.6949 6.61895 37.7232 6.64901 37.7516 6.68073C37.9183 6.84771 38.0851 7.02804 38.2518 7.20838C38.4186 7.38871 38.602 7.60411 38.7738 7.80616C38.8605 7.90634 38.9405 8.0082 39.0239 8.11005C39.1073 8.21191 39.1906 8.31543 39.2723 8.4223C39.4941 8.69781 39.7042 8.98167 39.906 9.27054C39.9844 9.37907 40.0594 9.48761 40.1328 9.60449C40.2828 9.82156 40.4279 10.042 40.5713 10.2724C40.643 10.3843 40.7114 10.4995 40.7814 10.6064C40.8748 10.7583 40.9648 10.9153 41.0515 11.0672C41.1182 11.1824 41.1833 11.2976 41.2483 11.4145C41.3133 11.5314 41.375 11.6483 41.4367 11.7668C41.5618 11.9989 41.6802 12.2394 41.7969 12.4782C42.1086 13.1241 42.3869 13.7856 42.6307 14.4602C42.7524 14.7941 42.8708 15.1281 42.9758 15.4787C43.0842 15.821 43.1843 16.1717 43.2743 16.524C43.3644 16.8763 43.4411 17.2303 43.5194 17.5876C43.8271 19.04 43.9885 20.5196 44.0013 22.0042Z" fill="#2A2B4F"/>
<path d="M28.6958 23.2919C30.6399 23.2919 32.2159 21.7138 32.2159 19.7671C32.2159 17.8203 30.6399 16.2422 28.6958 16.2422C26.7518 16.2422 25.1758 17.8203 25.1758 19.7671C25.1758 21.7138 26.7518 23.2919 28.6958 23.2919Z" fill="#6DC0E3"/>
</svg>
