<svg width="20" height="20" viewBox="0 0 20 20" fill="none" xmlns="http://www.w3.org/2000/svg">
<path fill-rule="evenodd" clip-rule="evenodd" d="M4.6983 1.1363C4.99119 1.42919 4.99119 1.90406 4.6983 2.19696L2.1983 4.69696C1.90541 4.98985 1.43053 4.98985 1.13764 4.69696C0.844745 4.40406 0.844745 3.92919 1.13764 3.6363L3.63764 1.1363C3.93053 0.843403 4.40541 0.843403 4.6983 1.1363ZM10.0013 1.74996C5.44495 1.74996 1.7513 5.44361 1.7513 9.99996C1.7513 14.5563 5.44495 18.25 10.0013 18.25C14.5577 18.25 18.2513 14.5563 18.2513 9.99996C18.2513 5.44361 14.5577 1.74996 10.0013 1.74996ZM10.0013 5.91663C10.4155 5.91663 10.7513 6.25241 10.7513 6.66663V9.59857L12.9173 11.0426C13.262 11.2724 13.3551 11.738 13.1253 12.0827C12.8956 12.4273 12.4299 12.5204 12.0853 12.2907L9.58528 10.624C9.37663 10.4849 9.2513 10.2507 9.2513 9.99996V6.66663C9.2513 6.25241 9.58709 5.91663 10.0013 5.91663ZM15.3043 2.19696C15.0114 1.90406 15.0114 1.42919 15.3043 1.1363C15.5972 0.843403 16.0721 0.843403 16.365 1.1363L18.865 3.6363C19.1579 3.92919 19.1579 4.40406 18.865 4.69696C18.5721 4.98985 18.0972 4.98985 17.8043 4.69696L15.3043 2.19696Z" fill="#BCC8D3"/>
</svg>
