<svg width="81" height="80" viewBox="0 0 81 80" fill="none" xmlns="http://www.w3.org/2000/svg">
<circle cx="40.5" cy="40" r="40" fill="#582669"/>
<path d="M56.6386 24.6076C56.894 24.3417 57.1988 24.1304 57.5351 23.9861C57.8715 23.8419 58.2327 23.7676 58.5975 23.7676C58.9623 23.7676 59.3235 23.8419 59.6598 23.9861C59.9962 24.1304 60.301 24.3417 60.5563 24.6076C61.6265 25.7115 61.6415 27.4952 60.5938 28.6181L38.4683 55.3167C38.217 55.5983 37.9122 55.8246 37.5724 55.9818C37.2325 56.1389 36.8649 56.2237 36.4918 56.2309C36.1188 56.238 35.7483 56.1674 35.4029 56.0233C35.0575 55.8793 34.7446 55.6648 34.4832 55.3931L21.02 41.4671C20.5008 40.9265 20.21 40.1997 20.21 39.4427C20.21 38.6857 20.5008 37.9589 21.02 37.4183C21.2754 37.1524 21.5802 36.9411 21.9165 36.7968C22.2529 36.6526 22.6141 36.5783 22.9789 36.5783C23.3437 36.5783 23.7049 36.6526 24.0412 36.7968C24.3776 36.9411 24.6824 37.1524 24.9377 37.4183L36.3579 49.2322L56.5638 24.6917C56.5871 24.6621 56.6121 24.6341 56.6386 24.6076Z" fill="white"/>
</svg>
