<svg width="24" height="24" viewBox="0 0 24 24" fill="currentColor" xmlns="http://www.w3.org/2000/svg">
<path fill-rule="evenodd" clip-rule="evenodd" d="M17.1503 2.79367C18.1992 1.84026 19.8009 1.84026 20.8497 2.79367C20.8985 2.83802 20.9504 2.88985 21.0176 2.95714L21.0177 2.95726L21.0303 2.96986L21.0429 2.98242L21.0429 2.98245C21.1103 3.04979 21.1622 3.10164 21.2065 3.15046C22.1599 4.19933 22.1599 5.80104 21.2065 6.84992C21.1622 6.89874 21.1103 6.95059 21.0429 7.01793L21.0303 7.03051L16.7838 11.277L16.7397 11.3211C16.3153 11.7457 16.0415 12.0195 15.7276 12.2452C15.4494 12.4452 15.1504 12.6145 14.8358 12.7501C14.4807 12.9032 14.1051 12.9971 13.5226 13.1426L13.5226 13.1426L13.4621 13.1577L11.1819 13.7278C10.9263 13.7917 10.656 13.7168 10.4697 13.5305C10.2834 13.3442 10.2085 13.0739 10.2724 12.8183L10.8425 10.5381L10.8576 10.4776C11.0031 9.89508 11.097 9.51946 11.2501 9.16441C11.3857 8.84981 11.555 8.55081 11.755 8.27263C11.9807 7.95869 12.2545 7.68496 12.6791 7.26048L12.6791 7.26047L12.6791 7.26046L12.7232 7.21637L16.9697 2.96985L16.9823 2.95728L16.9823 2.95722L16.9823 2.9572C17.0496 2.88988 17.1015 2.83803 17.1503 2.79367ZM9.367 2.25019L9.4 2.25019H12C12.4142 2.25019 12.75 2.58597 12.75 3.00019C12.75 3.4144 12.4142 3.75019 12 3.75019H9.4C8.26752 3.75019 7.46327 3.75077 6.83388 3.80219C6.21325 3.8529 5.829 3.94928 5.52453 4.10442C4.913 4.416 4.41582 4.91319 4.10423 5.52472C3.94909 5.82919 3.85271 6.21344 3.80201 6.83407C3.75058 7.46345 3.75 8.26771 3.75 9.40019V14.6002C3.75 15.7327 3.75058 16.5369 3.80201 17.1663C3.85271 17.7869 3.94909 18.1712 4.10423 18.4757C4.41582 19.0872 4.913 19.5844 5.52453 19.896C5.829 20.0511 6.21325 20.1475 6.83388 20.1982C7.46327 20.2496 8.26752 20.2502 9.4 20.2502H14.6C15.7325 20.2502 16.5367 20.2496 17.1661 20.1982C17.7867 20.1475 18.171 20.0511 18.4755 19.896C19.087 19.5844 19.5842 19.0872 19.8958 18.4757C20.0509 18.1712 20.1473 17.7869 20.198 17.1663C20.2494 16.5369 20.25 15.7327 20.25 14.6002V12.0002C20.25 11.586 20.5858 11.2502 21 11.2502C21.4142 11.2502 21.75 11.586 21.75 12.0002V14.6002V14.6332C21.75 15.7253 21.75 16.5908 21.693 17.2885C21.6347 18.0018 21.5131 18.6055 21.2323 19.1566C20.7769 20.0504 20.0502 20.7771 19.1565 21.2325C18.6053 21.5133 18.0017 21.6349 17.2883 21.6932C16.5906 21.7502 15.7252 21.7502 14.633 21.7502H14.6H9.4H9.36698C8.27484 21.7502 7.40935 21.7502 6.71173 21.6932C5.99834 21.6349 5.39472 21.5133 4.84355 21.2325C3.94978 20.7771 3.22312 20.0504 2.76772 19.1566C2.48688 18.6055 2.36527 18.0018 2.30699 17.2885C2.24999 16.5908 2.24999 15.7253 2.25 14.6332V14.6002V9.40019V9.36719V9.36718C2.24999 8.27504 2.24999 7.40954 2.30699 6.71192C2.36527 5.99853 2.48688 5.39491 2.76772 4.84373C3.22312 3.94996 3.94978 3.2233 4.84355 2.76791C5.39472 2.48707 5.99835 2.36546 6.71173 2.30717C7.40936 2.25018 8.27486 2.25018 9.367 2.25019Z" />
</svg>
