<svg width="32" height="40" viewBox="0 0 32 40" fill="none" xmlns="http://www.w3.org/2000/svg">
<path d="M30.7211 10.4051C30.9789 10.6629 31.125 11.0109 31.125 11.3762V37.875C31.125 38.6355 30.5105 39.25 29.75 39.25H2.25C1.48945 39.25 0.875 38.6355 0.875 37.875V2.125C0.875 1.36445 1.48945 0.75 2.25 0.75H20.4988C20.8641 0.75 21.2164 0.896094 21.4742 1.15391L30.7211 10.4051ZM22.2357 12.0078C24.3459 12.0078 25.4026 9.45655 23.9105 7.96445C22.4184 6.47235 19.8672 7.52912 19.8672 9.63927C19.8672 10.9474 20.9276 12.0078 22.2357 12.0078ZM21.2087 25.3823C21.1459 25.3802 21.0828 25.3788 21.0193 25.378C19.7574 25.363 18.3941 25.2184 17.6429 24.2043C17.3549 23.8155 17.1105 23.3716 16.9005 22.8611C16.8525 22.7444 16.8449 22.6152 16.8748 22.4926L16.9281 22.27C17.1129 21.491 17.2122 20.9225 17.2418 20.3493C17.2641 19.9166 17.2401 19.5175 17.1632 19.1475C17.0214 18.3487 16.4563 17.8816 15.7443 17.8529C15.0805 17.8258 14.4703 18.1966 14.3143 18.7711C14.193 19.215 14.1636 19.7259 14.2247 20.3658C14.3908 22.1063 14.3962 23.8877 13.6478 25.4678C13.6336 25.4979 13.6193 25.5279 13.6051 25.5577C12.9531 26.9281 11.7609 27.9054 10.5726 28.8494C9.87223 29.4067 9.4348 29.9795 9.31449 30.5811C9.25605 30.8599 9.34414 31.2243 9.5448 31.5229C9.77254 31.8615 10.1154 32.0815 10.5266 32.1133C11.5008 32.1888 12.6845 31.2504 13.9908 29.1361C14.16 28.8622 14.4163 28.6519 14.7212 28.5486L15.2326 28.3759C15.5561 28.2668 15.7907 28.1886 16.0228 28.1134C17.5913 27.6026 19.2445 27.9937 20.8501 28.3722C21.2751 28.4724 21.6711 28.5271 22.0083 28.5271C22.7809 28.5271 23.303 28.1267 23.4916 27.4963C23.657 26.9429 23.526 26.3009 23.1702 25.946C22.8024 25.5846 22.1261 25.4119 21.2087 25.3823ZM10.5529 30.9003C10.5529 30.8901 10.5547 30.8799 10.5584 30.8704L10.5584 30.8702C10.6213 30.7077 10.702 30.5526 10.7991 30.4079C10.983 30.1252 11.2361 29.8278 11.5497 29.5111C11.7182 29.3414 11.8935 29.176 12.0993 28.9904C12.1453 28.9491 12.4392 28.6874 12.4942 28.6359C12.5677 28.5674 12.6787 28.6595 12.6252 28.7446C12.0959 29.5885 11.6172 30.1961 11.2073 30.5922C11.0564 30.7383 10.9237 30.8457 10.8162 30.9149C10.7808 30.9386 10.7433 30.959 10.7041 30.9759C10.6865 30.9832 10.671 30.9875 10.6555 30.9888C10.6392 30.9909 10.6226 30.9887 10.6074 30.9824C10.5912 30.9756 10.5774 30.9642 10.5677 30.9496C10.558 30.935 10.5528 30.9178 10.5529 30.9003ZM15.9643 21.5211C15.9273 21.5866 15.83 21.5764 15.8071 21.5048C15.6739 21.0824 15.5759 20.446 15.5488 19.872C15.5179 19.2188 15.5699 18.827 15.7761 18.827C16.0657 18.827 16.1985 19.291 16.2088 19.9893C16.2183 20.6029 16.122 21.2414 15.9643 21.5211ZM15.7147 24.033C15.7406 23.9646 15.835 23.9582 15.8702 24.0223C16.3725 24.935 17.0244 25.6964 17.7411 26.227C17.8008 26.2711 17.7798 26.3651 17.7071 26.38C17.0055 26.5252 16.3519 26.7435 15.4582 27.104C15.5514 27.0662 14.5292 27.4847 14.2705 27.584C14.1949 27.6129 14.125 27.5308 14.1652 27.4607C14.6959 26.5368 15.1866 25.4274 15.7147 24.033ZM22.4874 27.3098C22.1497 27.443 21.4227 27.324 20.1426 26.7775C20.06 26.7423 20.0806 26.6199 20.1701 26.6133C21.1713 26.539 21.8803 26.594 22.2936 26.7452C22.4698 26.8097 22.5871 26.8909 22.6391 26.9837C22.6665 27.0277 22.6757 27.0805 22.6648 27.1311C22.6539 27.1817 22.6237 27.2261 22.5807 27.2548C22.5533 27.2789 22.5217 27.2976 22.4874 27.3098Z"/>
</svg>
