<svg width="20" height="20" viewBox="0 0 20 20" fill="none" xmlns="http://www.w3.org/2000/svg">
<path fill-rule="evenodd" clip-rule="evenodd" d="M10.679 1.23779C10.2285 1.17269 9.77092 1.17269 9.32037 1.23779C8.81141 1.31134 8.32421 1.49413 7.56839 1.77769L7.48918 1.8074L6.67158 2.114L6.57629 2.14972C5.702 2.4774 5.14126 2.68757 4.67557 3.0019C3.69037 3.6669 2.99029 4.67711 2.71356 5.83308C2.58275 6.37949 2.58285 6.97832 2.58302 7.912L2.58303 8.01376L2.58303 9.13976L2.58303 9.17221C2.58302 9.71757 2.58302 10.0291 2.60308 10.325C2.77892 12.918 4.09842 15.2987 6.20415 16.8222C6.44439 16.996 6.70858 17.1611 7.17104 17.4501L7.19858 17.4673L7.22534 17.4841C7.47339 17.6391 7.63244 17.7385 7.78997 17.8213C9.17342 18.5484 10.826 18.5484 12.2094 17.8213C12.3669 17.7386 12.526 17.6392 12.774 17.4841L12.7741 17.4841L12.8008 17.4673L12.8284 17.4501C13.2908 17.1611 13.555 16.996 13.7952 16.8222C15.901 15.2987 17.2205 12.918 17.3963 10.325C17.4164 10.0291 17.4164 9.7176 17.4164 9.17227L17.4164 9.17224L17.4164 9.13976L17.4164 8.01376L17.4164 7.912C17.4165 6.97832 17.4166 6.37949 17.2858 5.83308C17.0091 4.67711 16.309 3.6669 15.3238 3.0019C14.8581 2.68757 14.2974 2.4774 13.4231 2.14972L13.3278 2.114L12.5102 1.8074L12.431 1.77769C11.6752 1.49413 11.188 1.31134 10.679 1.23779ZM13.4467 7.38666C13.7396 7.67955 13.7396 8.15443 13.4467 8.44732L9.69668 12.1973C9.40379 12.4902 8.92892 12.4902 8.63602 12.1973L6.96936 10.5307C6.67646 10.2378 6.67646 9.76289 6.96936 9.47C7.26225 9.1771 7.73712 9.1771 8.03002 9.47L9.16635 10.6063L12.386 7.38666C12.6789 7.09377 13.1538 7.09377 13.4467 7.38666Z" fill="#582669"/>
</svg>