<svg width="20" height="20" viewBox="0 0 20 20" fill="none" xmlns="http://www.w3.org/2000/svg">
<path fill-rule="evenodd" clip-rule="evenodd" d="M8.33465 16.667C8.33465 17.5875 9.08084 18.3337 10.0013 18.3337C10.9218 18.3337 11.668 17.5875 11.668 16.667V15.5921C12.0559 15.4766 12.427 15.3219 12.7765 15.1325L13.5368 15.8929C14.1877 16.5438 15.243 16.5438 15.8939 15.8929C16.5447 15.242 16.5447 14.1867 15.8939 13.5359L15.1335 12.7755C15.3229 12.426 15.4776 12.0549 15.5931 11.667H16.668C17.5884 11.667 18.3346 10.9208 18.3346 10.0003C18.3346 9.07985 17.5884 8.33366 16.668 8.33366H15.5931C15.4776 7.94571 15.3229 7.57467 15.1335 7.22516L15.8939 6.46479C16.5447 5.81392 16.5447 4.75864 15.8939 4.10777C15.243 3.4569 14.1877 3.4569 13.5368 4.10777L12.7765 4.86814C12.427 4.67875 12.0559 4.52402 11.668 4.40856V3.33366C11.668 2.41318 10.9218 1.66699 10.0013 1.66699C9.08084 1.66699 8.33465 2.41318 8.33465 3.33366V4.40855C7.94669 4.52401 7.57566 4.67875 7.22614 4.86814L6.46577 4.10777C5.81489 3.4569 4.75962 3.4569 4.10875 4.10777C3.45787 4.75864 3.45787 5.81392 4.10875 6.46479L4.86912 7.22517C4.67973 7.57468 4.525 7.94571 4.40954 8.33366H3.33464C2.41416 8.33366 1.66797 9.07985 1.66797 10.0003C1.66797 10.9208 2.41416 11.667 3.33464 11.667H4.40954C4.525 12.0549 4.67973 12.426 4.86912 12.7755L4.10875 13.5359C3.45787 14.1867 3.45787 15.242 4.10875 15.8929C4.75962 16.5438 5.81489 16.5438 6.46577 15.8929L7.22614 15.1325C7.57566 15.3219 7.9467 15.4766 8.33465 15.5921V16.667ZM10.0013 12.5003C11.382 12.5003 12.5013 11.381 12.5013 10.0003C12.5013 8.61961 11.382 7.50033 10.0013 7.50033C8.62059 7.50033 7.5013 8.61961 7.5013 10.0003C7.5013 11.381 8.62059 12.5003 10.0013 12.5003Z" fill="white"/>
</svg>
