<svg width="20" height="20" viewBox="0 0 20 20" fill="none" xmlns="http://www.w3.org/2000/svg">
<path fill-rule="evenodd" clip-rule="evenodd" d="M18.3332 10.0003C18.3332 14.6027 14.6022 18.3337 9.99984 18.3337C5.39746 18.3337 1.6665 14.6027 1.6665 10.0003C1.6665 5.39795 5.39746 1.66699 9.99984 1.66699C14.6022 1.66699 18.3332 5.39795 18.3332 10.0003ZM9.99984 8.41699C10.4141 8.41699 10.7498 8.75278 10.7498 9.16699V13.3337C10.7498 13.7479 10.4141 14.0837 9.99984 14.0837C9.58562 14.0837 9.24984 13.7479 9.24984 13.3337V9.16699C9.24984 8.75278 9.58562 8.41699 9.99984 8.41699ZM9.99984 7.50033C10.4601 7.50033 10.8332 7.12723 10.8332 6.66699C10.8332 6.20676 10.4601 5.83366 9.99984 5.83366C9.5396 5.83366 9.1665 6.20676 9.1665 6.66699C9.1665 7.12723 9.5396 7.50033 9.99984 7.50033Z" fill="#E6A23C"/>
</svg>
