<svg width="20" height="20" viewBox="0 0 20 20" fill="none" xmlns="http://www.w3.org/2000/svg">
<path fill-rule="evenodd" clip-rule="evenodd" d="M8.9 1.75024L8.867 1.75024C7.77486 1.75024 6.90936 1.75023 6.21173 1.80723C5.49834 1.86552 4.89472 1.98713 4.34355 2.26796C3.44978 2.72336 2.72312 3.45002 2.26772 4.34379C1.98688 4.89496 1.86527 5.49859 1.80699 6.21198C1.74999 6.9096 1.74999 7.7751 1.75 8.86724L1.75 8.90024V11.1002L1.75 11.1332C1.74999 12.2254 1.74999 13.0909 1.80699 13.7885C1.86527 14.5019 1.98688 15.1055 2.26772 15.6567C2.72312 16.5505 3.44978 17.2771 4.34355 17.7325C4.89472 18.0134 5.49835 18.135 6.21173 18.1933C6.90935 18.2503 7.77484 18.2502 8.86697 18.2502H8.86703H8.9H11.8096L11.8755 18.2502C12.1479 18.2503 12.378 18.2503 12.5833 18.2449V16.5336V16.5031C12.5833 15.969 12.5833 15.5231 12.6131 15.1589C12.6441 14.779 12.7112 14.4223 12.8831 14.0851C13.1467 13.5676 13.5674 13.1469 14.0849 12.8833C14.4221 12.7114 14.7788 12.6443 15.1587 12.6133C15.5229 12.5835 15.9687 12.5835 16.5029 12.5836H16.5333H18.2447C18.2501 12.3783 18.25 12.1481 18.25 11.8757L18.25 11.8099V8.90024V8.86728V8.86721C18.25 7.77508 18.25 6.90959 18.193 6.21198C18.1347 5.49859 18.0131 4.89496 17.7323 4.34379C17.2769 3.45002 16.5502 2.72336 15.6565 2.26796C15.1053 1.98713 14.5017 1.86552 13.7883 1.80723C13.0906 1.75023 12.2251 1.75024 11.133 1.75024L11.1 1.75024H8.9ZM17.9818 14.0836H16.5333C15.9609 14.0836 15.5767 14.0841 15.2808 14.1083C14.9937 14.1318 14.8564 14.1737 14.7658 14.2198C14.5306 14.3396 14.3394 14.5309 14.2196 14.7661C14.1734 14.8566 14.1315 14.9939 14.1081 15.281C14.0839 15.5769 14.0833 15.9611 14.0833 16.5336V17.982C14.5038 17.8344 14.9026 17.628 15.2676 17.3677C15.5899 17.1379 15.8747 16.853 16.3171 16.4105L16.3171 16.4105L16.3637 16.3639L16.4102 16.3174L16.4102 16.3174C16.8527 15.875 17.1376 15.5901 17.3674 15.2678C17.6277 14.9028 17.8342 14.504 17.9818 14.0836ZM5.08333 5.83358C5.08333 5.41936 5.41912 5.08358 5.83333 5.08358H12.5C12.9142 5.08358 13.25 5.41936 13.25 5.83358C13.25 6.24779 12.9142 6.58358 12.5 6.58358H5.83333C5.41912 6.58358 5.08333 6.24779 5.08333 5.83358ZM5.83333 8.41691C5.41912 8.41691 5.08333 8.7527 5.08333 9.16691C5.08333 9.58112 5.41912 9.91691 5.83333 9.91691H10.8333C11.2475 9.91691 11.5833 9.58112 11.5833 9.16691C11.5833 8.7527 11.2475 8.41691 10.8333 8.41691H5.83333ZM5.08333 12.5002C5.08333 12.086 5.41912 11.7502 5.83333 11.7502H7.5C7.91421 11.7502 8.25 12.086 8.25 12.5002C8.25 12.9145 7.91421 13.2502 7.5 13.2502H5.83333C5.41912 13.2502 5.08333 12.9145 5.08333 12.5002Z" fill="#582669"/>
</svg>
