<svg width="105" height="104" viewBox="0 0 105 104" fill="none" xmlns="http://www.w3.org/2000/svg">
<circle cx="52.5" cy="52" r="52" fill="#582669"/>
<path d="M66.8657 25.5593C70.766 25.5593 74.5179 27.1164 77.278 29.9103C80.0411 32.6983 81.5855 36.4588 81.5855 40.3955V63.6045C81.5855 71.8011 74.9833 78.4407 66.8657 78.4407H38.1329C30.0153 78.4407 23.416 71.8011 23.416 63.6045V40.3955C23.416 32.1989 29.9863 25.5593 38.1329 25.5593H66.8657ZM70.1552 40.8362C69.5444 40.8038 68.9627 41.0124 68.5235 41.4237L55.4092 52C53.7223 53.4131 51.3054 53.4131 49.5923 52L36.5042 41.4237C35.5996 40.748 34.349 40.8362 33.5957 41.6294C32.8104 42.4226 32.7231 43.6859 33.3892 44.5672L33.7702 44.9492L47.0037 55.3785C48.6325 56.6712 50.6073 57.3763 52.6753 57.3763C54.7374 57.3763 56.7471 56.6712 58.373 55.3785L71.4931 44.7729L71.7258 44.5379C72.4209 43.6859 72.4209 42.452 71.6938 41.6C71.2895 41.1623 70.734 40.8949 70.1552 40.8362Z" fill="white"/>
</svg>
