<svg width="20" height="20" viewBox="0 0 20 20" fill="none" xmlns="http://www.w3.org/2000/svg">
<path fill-rule="evenodd" clip-rule="evenodd" d="M8.9 1.75L8.867 1.75C7.77486 1.74999 6.90936 1.74999 6.21173 1.80699C5.49834 1.86527 4.89472 1.98688 4.34355 2.26772C3.44978 2.72312 2.72312 3.44978 2.26772 4.34355C1.98688 4.89472 1.86527 5.49834 1.80699 6.21173C1.74999 6.90936 1.74999 7.77485 1.75 8.867L1.75 8.9V11.1L1.75 11.133C1.74999 12.2251 1.74999 13.0906 1.80699 13.7883C1.86527 14.5017 1.98688 15.1053 2.26772 15.6565C2.72312 16.5502 3.44978 17.2769 4.34355 17.7323C4.89472 18.0131 5.49835 18.1347 6.21173 18.193C6.90935 18.25 7.77484 18.25 8.86697 18.25H8.86703H8.9H11.8096L11.8755 18.25C12.1479 18.25 12.378 18.2501 12.5833 18.2447V16.5333V16.5029C12.5833 15.9687 12.5833 15.5229 12.6131 15.1586C12.6441 14.7788 12.7112 14.4221 12.8831 14.0848C13.1467 13.5674 13.5674 13.1467 14.0849 12.883C14.4221 12.7112 14.7788 12.6441 15.1587 12.613C15.5229 12.5833 15.9687 12.5833 16.5029 12.5833H16.5333H18.2447C18.2501 12.378 18.25 12.1479 18.25 11.8755L18.25 11.8096V8.9V8.86703V8.86696C18.25 7.77484 18.25 6.90935 18.193 6.21173C18.1347 5.49834 18.0131 4.89472 17.7323 4.34355C17.2769 3.44978 16.5502 2.72312 15.6565 2.26772C15.1053 1.98688 14.5017 1.86527 13.7883 1.80699C13.0906 1.74999 12.2251 1.74999 11.133 1.75L11.1 1.75H8.9ZM17.9818 14.0833H16.5333C15.9609 14.0833 15.5767 14.0839 15.2808 14.1081C14.9937 14.1315 14.8564 14.1734 14.7658 14.2196C14.5306 14.3394 14.3394 14.5306 14.2196 14.7658C14.1734 14.8564 14.1315 14.9937 14.1081 15.2808C14.0839 15.5767 14.0833 15.9609 14.0833 16.5333V17.9818C14.5038 17.8342 14.9026 17.6277 15.2676 17.3674C15.5899 17.1376 15.8747 16.8527 16.3171 16.4102L16.3171 16.4102L16.3637 16.3637L16.4102 16.3171L16.4102 16.3171C16.8527 15.8747 17.1376 15.5899 17.3674 15.2676C17.6277 14.9026 17.8342 14.5037 17.9818 14.0833ZM5.08333 5.83333C5.08333 5.41912 5.41912 5.08333 5.83333 5.08333H12.5C12.9142 5.08333 13.25 5.41912 13.25 5.83333C13.25 6.24755 12.9142 6.58333 12.5 6.58333H5.83333C5.41912 6.58333 5.08333 6.24755 5.08333 5.83333ZM5.83333 8.41667C5.41912 8.41667 5.08333 8.75245 5.08333 9.16667C5.08333 9.58088 5.41912 9.91667 5.83333 9.91667H10.8333C11.2475 9.91667 11.5833 9.58088 11.5833 9.16667C11.5833 8.75245 11.2475 8.41667 10.8333 8.41667H5.83333ZM5.08333 12.5C5.08333 12.0858 5.41912 11.75 5.83333 11.75H7.5C7.91421 11.75 8.25 12.0858 8.25 12.5C8.25 12.9142 7.91421 13.25 7.5 13.25H5.83333C5.41912 13.25 5.08333 12.9142 5.08333 12.5Z" fill="white"/>
</svg>
