<svg width="44" height="44" viewBox="0 0 44 44" fill="none" xmlns="http://www.w3.org/2000/svg">
<path d="M41.25 8.04492V35.9547H2.75V8.04492H41.25Z" fill="#2DCC9F"/>
<path d="M33.3197 11.7429C32.6106 11.5933 31.8714 11.7032 31.2365 12.0527C30.6016 12.4021 30.1132 12.9679 29.8603 13.6471C29.6074 14.3262 29.6067 15.0736 29.8584 15.7533C30.1101 16.4329 30.5974 16.9995 31.2317 17.3502C31.8659 17.7008 32.605 17.812 33.3144 17.6637C34.0238 17.5153 34.6563 17.1172 35.0969 16.5418C35.5375 15.9664 35.7569 15.252 35.7151 14.5284C35.6734 13.8049 35.3733 13.1204 34.8694 12.5995C34.4492 12.1666 33.9098 11.8685 33.3197 11.7429ZM24.9034 27.6365C22.4064 24.1642 19.9085 20.6923 17.4096 17.2209L6.29688 32.6773H21.2844C22.4907 30.998 23.698 29.3191 24.9061 27.6407M30.3291 21.999C27.7689 25.5575 25.2095 29.1165 22.6511 32.6759H38.0085C35.4501 29.1165 32.8903 25.5575 30.3291 21.999Z" fill="white"/>
</svg>
