<svg width="20" height="20" viewBox="0 0 20 20" fill="none" xmlns="http://www.w3.org/2000/svg">
<path fill-rule="evenodd" clip-rule="evenodd" d="M7.41668 0.833374C7.41668 0.41916 7.08089 0.083374 6.66668 0.083374C6.25246 0.083374 5.91668 0.41916 5.91668 0.833374V1.78626C5.89207 1.78914 5.86778 1.79224 5.84377 1.79559C3.7414 2.08886 2.08883 3.74143 1.79556 5.8438C1.7499 6.1711 1.74994 6.5473 1.75 7.13869L1.75001 7.20592V11.1L1.75001 11.133C1.75 12.2252 1.75 13.0907 1.807 13.7883C1.86528 14.5017 1.98689 15.1053 2.26773 15.6565C2.72313 16.5503 3.44978 17.2769 4.34355 17.7323C4.89473 18.0132 5.49835 18.1348 6.21174 18.1931C6.90935 18.25 7.77482 18.25 8.86692 18.25H8.86699H8.90001H11.1H11.133H11.1331C12.2252 18.25 13.0907 18.25 13.7883 18.1931C14.5017 18.1348 15.1053 18.0132 15.6565 17.7323C16.5502 17.2769 17.2769 16.5503 17.7323 15.6565C18.0131 15.1053 18.1347 14.5017 18.193 13.7883C18.25 13.0907 18.25 12.2252 18.25 11.1331V11.133V11.1V8.90004V8.86707V8.86701C18.25 7.77488 18.25 6.90939 18.193 6.21177C18.1347 5.49839 18.0131 4.89476 17.7323 4.34359C17.2769 3.44982 16.5502 2.72316 15.6565 2.26776C15.1829 2.02648 14.6707 1.90273 14.0833 1.83569V0.833374C14.0833 0.41916 13.7476 0.083374 13.3333 0.083374C12.9191 0.083374 12.5833 0.41916 12.5833 0.833374V1.75676C12.1498 1.75004 11.6687 1.75004 11.133 1.75004L11.1 1.75004H7.41668V0.833374ZM5.08335 6.66671C5.08335 6.25249 5.41914 5.91671 5.83335 5.91671H14.1667C14.5809 5.91671 14.9167 6.25249 14.9167 6.66671C14.9167 7.08092 14.5809 7.41671 14.1667 7.41671H5.83335C5.41914 7.41671 5.08335 7.08092 5.08335 6.66671ZM6.66669 10.8334C7.12692 10.8334 7.50002 10.4603 7.50002 10C7.50002 9.5398 7.12692 9.16671 6.66669 9.16671C6.20645 9.16671 5.83335 9.5398 5.83335 10C5.83335 10.4603 6.20645 10.8334 6.66669 10.8334ZM7.50002 13.3334C7.50002 13.7936 7.12692 14.1667 6.66669 14.1667C6.20645 14.1667 5.83335 13.7936 5.83335 13.3334C5.83335 12.8731 6.20645 12.5 6.66669 12.5C7.12692 12.5 7.50002 12.8731 7.50002 13.3334ZM10 14.1667C10.4603 14.1667 10.8334 13.7936 10.8334 13.3334C10.8334 12.8731 10.4603 12.5 10 12.5C9.53978 12.5 9.16669 12.8731 9.16669 13.3334C9.16669 13.7936 9.53978 14.1667 10 14.1667ZM14.1667 13.3334C14.1667 13.7936 13.7936 14.1667 13.3334 14.1667C12.8731 14.1667 12.5 13.7936 12.5 13.3334C12.5 12.8731 12.8731 12.5 13.3334 12.5C13.7936 12.5 14.1667 12.8731 14.1667 13.3334ZM10 10.8334C10.4603 10.8334 10.8334 10.4603 10.8334 10C10.8334 9.5398 10.4603 9.16671 10 9.16671C9.53978 9.16671 9.16669 9.5398 9.16669 10C9.16669 10.4603 9.53978 10.8334 10 10.8334ZM14.1667 10C14.1667 10.4603 13.7936 10.8334 13.3334 10.8334C12.8731 10.8334 12.5 10.4603 12.5 10C12.5 9.5398 12.8731 9.16671 13.3334 9.16671C13.7936 9.16671 14.1667 9.5398 14.1667 10Z" fill="#BCC8D3"/>
</svg>
