<svg width="20" height="20" viewBox="0 0 20 20" fill="none" xmlns="http://www.w3.org/2000/svg">
<path fill-rule="evenodd" clip-rule="evenodd" d="M9.92656 0.917015L9.99984 0.917039L10.0731 0.917015C10.4658 0.91682 10.7688 0.91667 11.0363 0.96988C12.1272 1.18687 12.98 2.03964 13.197 3.13054C13.2502 3.39805 13.2501 3.70104 13.2499 4.09377L13.2498 4.16704V6.77387C15.2406 7.90611 16.5832 10.0465 16.5832 12.5004C16.5832 16.1362 13.6357 19.0837 9.99984 19.0837C6.36396 19.0837 3.4165 16.1362 3.4165 12.5004C3.4165 10.0465 4.75912 7.90611 6.74984 6.77387V4.16704L6.74981 4.09376C6.74962 3.70104 6.74947 3.39805 6.80268 3.13054C7.01967 2.03964 7.87244 1.18687 8.96334 0.96988C9.23084 0.91667 9.53384 0.91682 9.92656 0.917015ZM11.7498 4.16704V6.15217C11.1926 5.9989 10.6058 5.91704 9.99984 5.91704C9.3939 5.91704 8.80708 5.9989 8.24984 6.15217V4.16704C8.24984 3.66644 8.25347 3.52566 8.27386 3.42318C8.37249 2.92731 8.76011 2.53969 9.25597 2.44106C9.35846 2.42067 9.49923 2.41704 9.99984 2.41704C10.5004 2.41704 10.6412 2.42067 10.7437 2.44106C11.2396 2.53969 11.6272 2.92731 11.7258 3.42318C11.7462 3.52566 11.7498 3.66644 11.7498 4.16704ZM9.99984 10.917C10.4141 10.917 10.7498 11.2528 10.7498 11.667V13.3337C10.7498 13.7479 10.4141 14.0837 9.99984 14.0837C9.58562 14.0837 9.24984 13.7479 9.24984 13.3337V11.667C9.24984 11.2528 9.58562 10.917 9.99984 10.917Z" fill="#BCC8D3"/>
</svg>
