<svg width="20" height="20" viewBox="0 0 20 20" fill="none" xmlns="http://www.w3.org/2000/svg">
<path fill-rule="evenodd" clip-rule="evenodd" d="M2.10394 5.51705C1.66797 6.37269 1.66797 7.4928 1.66797 9.733V10.2663C1.66797 12.5066 1.66797 13.6267 2.10394 14.4823C2.48744 15.235 3.09936 15.8469 3.85201 16.2304C4.70765 16.6663 5.82776 16.6663 8.06797 16.6663H11.9346C14.1748 16.6663 15.295 16.6663 16.1506 16.2304C16.9032 15.8469 17.5152 15.235 17.8987 14.4823C18.3346 13.6267 18.3346 12.5066 18.3346 10.2663V9.73301C18.3346 7.4928 18.3346 6.37269 17.8987 5.51705C17.5152 4.7644 16.9032 4.15248 16.1506 3.76898C15.295 3.33301 14.1748 3.33301 11.9346 3.33301H8.06797C5.82776 3.33301 4.70765 3.33301 3.85201 3.76898C3.09936 4.15248 2.48744 4.7644 2.10394 5.51705ZM5.41733 6.0423C5.07268 5.81254 4.60703 5.90567 4.37726 6.25032C4.1475 6.59496 4.24063 7.06061 4.58528 7.29038L9.58528 10.6237C9.8372 10.7917 10.1654 10.7917 10.4173 10.6237L15.4173 7.29038C15.762 7.06061 15.8551 6.59496 15.6253 6.25032C15.3956 5.90567 14.9299 5.81254 14.5853 6.0423L10.0013 9.09829L5.41733 6.0423Z" fill="white"/>
</svg>
