<svg width="20" height="20" viewBox="0 0 20 20" fill="none" xmlns="http://www.w3.org/2000/svg">
<path fill-rule="evenodd" clip-rule="evenodd" d="M10.918 1.7507C10.8168 1.7502 10.7106 1.75023 10.5985 1.75026L10.5131 1.75028H8.96797L8.93586 1.75028C8.12303 1.75027 7.46741 1.75026 6.9365 1.79364C6.38986 1.8383 5.90972 1.93266 5.4655 2.159C4.7599 2.51853 4.18622 3.0922 3.82669 3.79781C3.60035 4.24203 3.50599 4.72217 3.46133 5.26881C3.41796 5.79972 3.41796 6.45533 3.41797 7.26817L3.41797 7.30028V12.7003L3.41797 12.7324C3.41796 13.5452 3.41796 14.2008 3.46133 14.7317C3.50599 15.2784 3.60035 15.7585 3.82669 16.2027C4.18622 16.9083 4.7599 17.482 5.4655 17.8415C5.90972 18.0679 6.38986 18.1622 6.9365 18.2069C7.46741 18.2503 8.12302 18.2503 8.93585 18.2503H8.96797H11.0346H11.0668C11.8796 18.2503 12.5352 18.2503 13.0661 18.2069C13.6127 18.1622 14.0929 18.0679 14.5371 17.8415C15.2427 17.482 15.8164 16.9083 16.1759 16.2027C16.4023 15.7585 16.4966 15.2784 16.5413 14.7317C16.5846 14.2008 16.5846 13.5452 16.5846 12.7324V12.7003V7.82184L16.5847 7.73637V7.73636C16.5847 7.62429 16.5847 7.51815 16.5842 7.41702H14.868H14.8375C14.3034 7.41703 13.8575 7.41704 13.4933 7.38728C13.1134 7.35624 12.7568 7.28913 12.4195 7.11728C11.902 6.85363 11.4814 6.43294 11.2177 5.91549C11.0459 5.57823 10.9787 5.22157 10.9477 4.84169C10.9179 4.47746 10.918 4.03161 10.918 3.49747V3.49745L10.918 3.46702V1.7507ZM16.401 5.91702C16.31 5.63706 16.1862 5.36846 16.032 5.11688C15.7994 4.73722 15.4804 4.41841 15.0195 3.95783L15.0195 3.95782L15.0195 3.95781L14.9591 3.89739L14.4375 3.37583L14.3771 3.31539L14.3771 3.31538C13.9165 2.85453 13.5977 2.53553 13.218 2.30288C12.9665 2.14872 12.6979 2.02497 12.418 1.93397V3.46702C12.418 4.03944 12.4186 4.42366 12.4427 4.71954C12.4662 5.00666 12.5081 5.14394 12.5542 5.23451C12.6741 5.46971 12.8653 5.66093 13.1005 5.78078C13.191 5.82692 13.3283 5.8688 13.6154 5.89226C13.9113 5.91643 14.2955 5.91702 14.868 5.91702H16.401ZM6.7513 10.0004C6.7513 9.58614 7.08708 9.25035 7.5013 9.25035H12.5013C12.9155 9.25035 13.2513 9.58614 13.2513 10.0004C13.2513 10.4146 12.9155 10.7504 12.5013 10.7504H7.5013C7.08708 10.7504 6.7513 10.4146 6.7513 10.0004ZM7.5013 12.5837C7.08708 12.5837 6.7513 12.9195 6.7513 13.3337C6.7513 13.7479 7.08708 14.0837 7.5013 14.0837H10.8346C11.2488 14.0837 11.5846 13.7479 11.5846 13.3337C11.5846 12.9195 11.2488 12.5837 10.8346 12.5837H7.5013Z" fill="#582669"/>
</svg>
