<svg width="17" height="18" viewBox="0 0 17 18" fill="none" xmlns="http://www.w3.org/2000/svg">
<path fill-rule="evenodd" clip-rule="evenodd" d="M11.6158 2.417C11.9343 1.40272 12.8819 0.666995 14.0013 0.666995C15.382 0.666995 16.5013 1.78628 16.5013 3.16699C16.5013 4.54771 15.382 5.66699 14.0013 5.66699C12.8819 5.66699 11.9343 4.93127 11.6158 3.917L8.16796 3.917C7.20271 3.917 6.82961 3.92063 6.53392 3.97944C5.24468 4.23589 4.23686 5.24371 3.98041 6.53295C3.97422 6.56411 3.96864 6.59612 3.9636 6.6296C4.95424 6.96192 5.66797 7.89777 5.66797 9.00033C5.66797 10.1029 4.95424 11.0387 3.9636 11.3711C3.96863 11.4045 3.97421 11.4365 3.98041 11.4677C4.23686 12.757 5.24468 13.7648 6.53392 14.0212C6.82961 14.08 7.20271 14.0837 8.16796 14.0837L11.6157 14.0837C11.9343 13.0694 12.8819 12.3337 14.0013 12.3337C15.382 12.3337 16.5013 13.4529 16.5013 14.8337C16.5013 16.2144 15.382 17.3337 14.0013 17.3337C12.8819 17.3337 11.9343 16.5979 11.6158 15.5837L8.16796 15.5837L8.0727 15.5837L8.07266 15.5837C7.23461 15.5838 6.7012 15.5839 6.24129 15.4924C4.357 15.1176 2.88404 13.6446 2.50923 11.7603C2.48634 11.6452 2.46918 11.5255 2.45632 11.3976C1.42229 11.0911 0.667967 10.1338 0.667967 9.00033C0.667967 7.86685 1.42229 6.90956 2.45632 6.60307C2.46918 6.47513 2.48634 6.35542 2.50924 6.24032C2.88404 4.35604 4.35701 2.88307 6.24129 2.50827C6.7012 2.41678 7.23462 2.41686 8.0727 2.41699L8.16796 2.417L11.6158 2.417Z" fill="white"/>
</svg>
