<svg width="24" height="24" viewBox="0 0 24 24" fill="currentColor" xmlns="http://www.w3.org/2000/svg">
<path fill-rule="evenodd" clip-rule="evenodd" d="M10.7298 2.25L10.621 2.24989C10.1084 2.24913 9.65851 2.24845 9.25763 2.40612C8.90709 2.54399 8.59677 2.76765 8.35513 3.0566C8.07878 3.38706 7.93715 3.81409 7.77577 4.30063L7.74147 4.40388L7.45943 5.25H5H3C2.58579 5.25 2.25 5.58579 2.25 6C2.25 6.41421 2.58579 6.75 3 6.75H4.29834L4.95295 16.5692L4.955 16.6C5.00586 17.363 5.04696 17.9796 5.12022 18.4786C5.19579 18.9932 5.31292 19.4431 5.54831 19.8563C5.92345 20.5147 6.48928 21.0441 7.17126 21.3746C7.59919 21.582 8.0558 21.6689 8.57438 21.7101C9.07707 21.75 9.6951 21.75 10.4598 21.75H10.4907H13.5093H13.5402C14.3049 21.75 14.9229 21.75 15.4256 21.7101C15.9442 21.6689 16.4008 21.582 16.8287 21.3746C17.5107 21.0441 18.0766 20.5147 18.4517 19.8563C18.6871 19.4431 18.8042 18.9932 18.8798 18.4786C18.953 17.9796 18.9941 17.363 19.045 16.6L19.0471 16.5692L19.7017 6.75H21C21.4142 6.75 21.75 6.41421 21.75 6C21.75 5.58579 21.4142 5.25 21 5.25H19H16.5406L16.2585 4.40388L16.2242 4.30063C16.0629 3.81409 15.9212 3.38706 15.6449 3.0566C15.4032 2.76765 15.0929 2.54399 14.7424 2.40612C14.3415 2.24845 13.8916 2.24913 13.379 2.24989L13.2702 2.25H10.7298ZM14.9594 5.25L14.8355 4.87822C14.6186 4.2274 14.5633 4.10152 14.4942 4.01887C14.4137 3.92255 14.3102 3.848 14.1934 3.80204C14.0931 3.7626 13.9562 3.75 13.2702 3.75H10.7298C10.0438 3.75 9.90691 3.7626 9.80663 3.80204C9.68979 3.848 9.58635 3.92255 9.5058 4.01887C9.43668 4.10152 9.38144 4.2274 9.16449 4.87822L9.04057 5.25H14.9594Z"/>
</svg>
