<svg width="20" height="20" viewBox="0 0 20 20" fill="none" xmlns="http://www.w3.org/2000/svg">
<path fill-rule="evenodd" clip-rule="evenodd" d="M9.99984 18.3337C14.6022 18.3337 18.3332 14.6027 18.3332 10.0003C18.3332 5.39795 14.6022 1.66699 9.99984 1.66699C5.39746 1.66699 1.6665 5.39795 1.6665 10.0003C1.6665 14.6027 5.39746 18.3337 9.99984 18.3337ZM13.8635 8.03066C14.1564 7.73776 14.1564 7.26289 13.8635 6.97C13.5706 6.6771 13.0957 6.6771 12.8028 6.97L9.1665 10.6063L8.03017 9.47C7.73727 9.1771 7.2624 9.1771 6.96951 9.47C6.67661 9.76289 6.67661 10.2378 6.96951 10.5307L8.63617 12.1973C8.77683 12.338 8.96759 12.417 9.1665 12.417C9.36542 12.417 9.55618 12.338 9.69683 12.1973L13.8635 8.03066Z" fill="#67C23A"/>
</svg>
