<svg width="20" height="20" viewBox="0 0 20 20" fill="none" xmlns="http://www.w3.org/2000/svg">
<path fill-rule="evenodd" clip-rule="evenodd" d="M2.58203 5.83203C2.58203 5.41782 2.91782 5.08203 3.33203 5.08203H16.6654C17.0796 5.08203 17.4154 5.41782 17.4154 5.83203C17.4154 6.24624 17.0796 6.58203 16.6654 6.58203H3.33203C2.91782 6.58203 2.58203 6.24624 2.58203 5.83203ZM2.58203 9.9987C2.58203 9.58448 2.91782 9.2487 3.33203 9.2487L16.6654 9.2487C17.0796 9.2487 17.4154 9.58449 17.4154 9.9987C17.4154 10.4129 17.0796 10.7487 16.6654 10.7487L3.33203 10.7487C2.91782 10.7487 2.58203 10.4129 2.58203 9.9987ZM3.33203 13.4154C2.91782 13.4154 2.58203 13.7512 2.58203 14.1654C2.58203 14.5796 2.91782 14.9154 3.33203 14.9154H16.6654C17.0796 14.9154 17.4154 14.5796 17.4154 14.1654C17.4154 13.7512 17.0796 13.4154 16.6654 13.4154H3.33203Z" fill="#333333"/>
</svg>
