<svg width="24" height="24" viewBox="0 0 24 24" fill="none" xmlns="http://www.w3.org/2000/svg">
<path fill-rule="evenodd" clip-rule="evenodd" d="M13.0972 2.25002L13.25 2.25002V4.80012V4.83056C13.25 5.36471 13.25 5.81056 13.2797 6.17479C13.3108 6.55468 13.3779 6.91133 13.5497 7.2486C13.8134 7.76604 14.2341 8.18674 14.7515 8.45039C15.0888 8.62223 15.4454 8.68934 15.8253 8.72038C16.1896 8.75014 16.6354 8.75013 17.1696 8.75012H17.2H19.75L19.75 8.90279V8.9028L19.75 8.98826V16.2V16.2322C19.75 17.045 19.75 17.7006 19.7066 18.2315C19.662 18.7781 19.5676 19.2583 19.3413 19.7025C18.9817 20.4081 18.4081 20.9818 17.7025 21.3413C17.2582 21.5676 16.7781 21.662 16.2315 21.7067C15.7006 21.75 15.045 21.75 14.2321 21.75H14.2H9.8H9.76788C8.95505 21.75 8.29944 21.75 7.76853 21.7067C7.2219 21.662 6.74175 21.5676 6.29754 21.3413C5.59193 20.9818 5.01825 20.4081 4.65873 19.7025C4.43239 19.2583 4.33803 18.7781 4.29336 18.2315C4.24999 17.7006 4.24999 17.045 4.25 16.2322V16.2321V16.2321V16.2V7.80003V7.76793V7.76792V7.76791C4.24999 6.95508 4.24999 6.29947 4.29336 5.76856C4.33803 5.22193 4.43239 4.74179 4.65873 4.29757C5.01825 3.59196 5.59193 3.01828 6.29754 2.65876C6.74175 2.43242 7.2219 2.33806 7.76853 2.2934C8.29944 2.25002 8.95506 2.25002 9.7679 2.25003L9.8 2.25003H13.0118L13.0972 2.25002ZM19.1974 6.2833C19.3819 6.58443 19.5229 6.90994 19.6163 7.25012H17.2C16.6276 7.25012 16.2434 7.24954 15.9475 7.22536C15.6604 7.2019 15.5231 7.16002 15.4325 7.11388C15.1973 6.99404 15.0061 6.80281 14.8862 6.56761C14.8401 6.47705 14.7982 6.33977 14.7748 6.05264C14.7506 5.75676 14.75 5.37255 14.75 4.80012V2.3838C15.0902 2.47717 15.4156 2.61812 15.7167 2.80263C16.0964 3.03529 16.4152 3.35429 16.8758 3.81514L16.8758 3.81515L16.9362 3.87559L18.1244 5.06381L18.1849 5.12424C18.6457 5.58483 18.9647 5.90364 19.1974 6.2833ZM12.75 11.0001C12.75 10.5859 12.4142 10.2501 12 10.2501C11.5858 10.2501 11.25 10.5859 11.25 11.0001V15.1895L10.0303 13.9698C9.73744 13.6769 9.26256 13.6769 8.96967 13.9698C8.67678 14.2627 8.67678 14.7376 8.96967 15.0305L11.4697 17.5305C11.7626 17.8233 12.2374 17.8233 12.5303 17.5305L15.0303 15.0305C15.3232 14.7376 15.3232 14.2627 15.0303 13.9698C14.7374 13.6769 14.2626 13.6769 13.9697 13.9698L12.75 15.1895V11.0001Z" />
</svg>
