<svg width="24" height="24" viewBox="0 0 24 24" fill="white" xmlns="http://www.w3.org/2000/svg">
<path fill-rule="evenodd" clip-rule="evenodd" d="M5.75 2C5.75 1.58579 5.41421 1.25 5 1.25C4.58579 1.25 4.25 1.58579 4.25 2V22C4.25 22.4142 4.58579 22.75 5 22.75C5.41421 22.75 5.75 22.4142 5.75 22V14H16.4111C17.2684 14 17.697 14 17.9551 13.8195C18.1805 13.6618 18.331 13.4183 18.3712 13.1462C18.4173 12.8345 18.2256 12.4512 17.8422 11.6845L17.2155 10.4311C16.9532 9.90635 16.822 9.64399 16.7704 9.3688C16.7246 9.12506 16.7246 8.87494 16.7704 8.6312C16.822 8.35601 16.9532 8.09364 17.2155 7.56892L17.8422 6.31554C18.2256 5.54882 18.4173 5.16546 18.3712 4.85384C18.331 4.58173 18.1805 4.33819 17.9551 4.18054C17.697 4 17.2684 4 16.4111 4H5.75V2Z" />
</svg>
