<svg width="40" height="40" viewBox="0 0 40 40" fill="none" xmlns="http://www.w3.org/2000/svg">
<circle cx="20" cy="20" r="20" fill="black" fill-opacity="0.7"/>
<path fill-rule="evenodd" clip-rule="evenodd" d="M20.0026 15.8333C20.9193 15.8333 21.6693 15.0833 21.6693 14.1667C21.6693 13.25 20.9193 12.5 20.0026 12.5C19.0859 12.5 18.3359 13.25 18.3359 14.1667C18.3359 15.0833 19.0859 15.8333 20.0026 15.8333ZM20.0026 18.3333C19.0859 18.3333 18.3359 19.0833 18.3359 20C18.3359 20.9167 19.0859 21.6667 20.0026 21.6667C20.9193 21.6667 21.6693 20.9167 21.6693 20C21.6693 19.0833 20.9193 18.3333 20.0026 18.3333ZM18.3359 25.8333C18.3359 24.9167 19.0859 24.1667 20.0026 24.1667C20.9193 24.1667 21.6693 24.9167 21.6693 25.8333C21.6693 26.75 20.9193 27.5 20.0026 27.5C19.0859 27.5 18.3359 26.75 18.3359 25.8333Z" fill="white"/>
</svg>
