<svg width="20" height="20" viewBox="0 0 20 20" fill="none" xmlns="http://www.w3.org/2000/svg">
<path fill-rule="evenodd" clip-rule="evenodd" d="M1.75 17.5002C1.75 17.3426 1.79861 17.1964 1.88165 17.0757C2.42416 16.2619 2.6164 15.964 2.69829 15.7481C2.79994 15.4802 2.83219 15.3641 2.84599 15.2656C2.85979 15.1672 2.86071 15.0467 2.83664 14.7611C2.82966 14.6783 2.78994 14.4903 2.67388 14.0956C2.56298 13.7185 2.40063 13.2106 2.17858 12.5162C1.9362 11.7582 1.75 10.8897 1.75 10.0002C1.75 5.44389 5.44365 1.75024 10 1.75024C14.5563 1.75024 18.25 5.44389 18.25 10.0002C18.25 14.5566 14.5563 18.2502 10 18.2502H2.5C2.08579 18.2502 1.75 17.9145 1.75 17.5002Z" fill="#582669"/>
</svg>
