<svg width="24" height="24" viewBox="0 0 24 24" fill="currentColor" xmlns="http://www.w3.org/2000/svg">
<path fill-rule="evenodd" clip-rule="evenodd" d="M16.1501 2.79368C17.199 1.84024 18.8008 1.84026 19.8497 2.79374C19.8985 2.83811 19.9503 2.88997 20.0176 2.95733L20.0302 2.96987L20.0428 2.98244C20.1101 3.04976 20.162 3.10161 20.2063 3.15042C21.1597 4.1993 21.1597 5.80103 20.2063 6.8499C20.1619 6.8987 20.1101 6.95054 20.0427 7.01785L20.0301 7.03043L12.7836 14.277L12.7395 14.3211C12.315 14.7457 12.0413 15.0195 11.7273 15.2452C11.4491 15.4452 11.1501 15.6144 10.8355 15.7501C10.4805 15.9032 10.1049 15.997 9.5224 16.1426L9.46189 16.1577L7.18166 16.7278C6.92608 16.7917 6.65571 16.7168 6.46943 16.5305C6.28314 16.3442 6.20825 16.0738 6.27215 15.8183L6.8422 13.5381L6.85732 13.4776C7.00287 12.8951 7.09673 12.5195 7.24982 12.1644C7.38548 11.8498 7.55477 11.5508 7.75475 11.2726C7.98044 10.9587 8.25425 10.6849 8.67884 10.2604L8.72294 10.2163L15.9696 2.96981L15.9821 2.95724C16.0494 2.88991 16.1013 2.83805 16.1501 2.79368ZM4 20.2502C3.58579 20.2502 3.25 20.586 3.25 21.0002C3.25 21.4144 3.58579 21.7502 4 21.7502H20C20.4142 21.7502 20.75 21.4144 20.75 21.0002C20.75 20.586 20.4142 20.2502 20 20.2502H4Z"/>
</svg>
