<svg width="20" height="20" viewBox="0 0 20 20" fill="none" xmlns="http://www.w3.org/2000/svg">
<path fill-rule="evenodd" clip-rule="evenodd" d="M5.11326 10.4718L6.44146 9.36142L6.52581 9.29098L6.52582 9.29098C7.00116 8.89424 7.37441 8.58272 7.61506 8.18001C7.8265 7.82618 7.9557 7.42936 7.99309 7.01887C8.03566 6.55167 7.91735 6.08011 7.76669 5.47957L7.76669 5.47956L7.73997 5.37296L7.37503 3.91319L7.3721 3.90147L7.37209 3.90142C7.35593 3.83675 7.34338 3.78653 7.32996 3.73988C7.00093 2.59587 5.97319 1.79344 4.78353 1.75169C4.73501 1.74999 4.68323 1.74999 4.61656 1.75L4.60447 1.75C4.56471 1.75 4.53574 1.75006 4.47646 1.75268C3.72328 1.78594 3.05336 2.16616 2.58918 2.67784C2.14208 3.17068 1.8349 3.84164 1.84866 4.5631L1.84775 4.57873C1.8476 4.58906 1.84765 4.60599 1.84777 4.61259L1.84831 4.62844L1.84913 4.64357L1.84997 4.65517L1.85061 4.66266L1.85088 4.66558L1.85137 4.67069L1.85186 4.67568C2.06777 6.88869 2.62096 8.88365 3.49515 10.6235C4.79441 13.2093 6.78934 15.2042 9.37515 16.5035C11.115 17.3777 13.11 17.9309 15.323 18.1468L15.328 18.1473L15.3331 18.1478L15.336 18.148L15.3435 18.1487L15.3551 18.1495L15.3702 18.1503L15.3861 18.1509C15.3927 18.151 15.4096 18.1511 15.4199 18.1509L15.4355 18.15C16.157 18.1638 16.828 17.8566 17.3208 17.4095C17.8325 16.9453 18.2127 16.2754 18.246 15.5222C18.2486 15.4629 18.2486 15.4339 18.2486 15.3942V15.3821C18.2487 15.3154 18.2487 15.2636 18.247 15.2151C18.2052 14.0255 17.4028 12.9977 16.2588 12.6687C16.2121 12.6553 16.1619 12.6427 16.0972 12.6266L16.0855 12.6236L14.6257 12.2587L14.5191 12.232L14.5191 12.232L14.5191 12.232C13.9185 12.0813 13.447 11.963 12.9798 12.0056C12.5693 12.043 12.1725 12.1721 11.8186 12.3836C11.4159 12.6242 11.1044 12.9975 10.7077 13.4728L10.6372 13.5572L9.52681 14.8854C7.65379 13.8302 6.16846 12.3449 5.11326 10.4718ZM15.5753 18.1215L15.5928 18.1165C15.6078 18.1121 15.6264 18.106 15.6473 18.098C15.6679 18.0901 15.6942 18.079 15.7237 18.0637C15.7356 18.0574 15.7605 18.0433 15.7733 18.0355C15.7876 18.0265 15.8171 18.0063 15.8323 17.995C15.8491 17.9819 15.8835 17.9525 15.9009 17.9361C15.9199 17.917 15.9577 17.8745 15.9764 17.8509C15.996 17.8238 16.0331 17.7642 16.0503 17.7317C16.0671 17.6956 16.0955 17.6186 16.1067 17.578C16.116 17.5352 16.127 17.4481 16.1287 17.4041C16.1281 17.3739 16.1235 17.3238 16.1182 17.2825C16.0762 17.2981 16.0337 17.3123 15.9909 17.325C15.9454 17.709 15.7075 18.0386 15.5753 18.1215ZM1.87714 4.42333C1.96008 4.29112 2.28963 4.05324 2.6737 4.00773C2.68637 3.96489 2.70054 3.92244 2.71614 3.88043C2.67481 3.8751 2.62466 3.87057 2.5944 3.86995C2.55039 3.87163 2.46327 3.88266 2.42046 3.89195C2.37984 3.90324 2.30294 3.93165 2.26679 3.94845C2.23434 3.9656 2.17479 4.00272 2.14765 4.02236C2.12409 4.04099 2.08152 4.07885 2.06244 4.09785C2.04608 4.11526 2.01668 4.14961 2.00356 4.16639C1.99233 4.18158 1.97212 4.2111 1.96307 4.22536C1.9553 4.23822 1.94125 4.26305 1.93493 4.27499C1.91964 4.3045 1.90853 4.33077 1.90063 4.35139C1.89262 4.37229 1.88659 4.39083 1.8821 4.40589L1.87714 4.42333ZM13.4987 1.7501C13.0845 1.7501 12.7487 2.08589 12.7487 2.5001C12.7487 2.91432 13.0845 3.2501 13.4987 3.2501H15.688L11.9684 6.96977C11.6755 7.26267 11.6755 7.73754 11.9684 8.03043C12.2612 8.32333 12.7361 8.32333 13.029 8.03043L16.7487 4.31076V6.5001C16.7487 6.91432 17.0845 7.2501 17.4987 7.2501C17.9129 7.2501 18.2487 6.91432 18.2487 6.5001V2.5001C18.2487 2.08589 17.9129 1.7501 17.4987 1.7501H13.4987Z" fill="white"/>
</svg>
