<svg width="18" height="18" viewBox="0 0 18 18" fill="none" xmlns="http://www.w3.org/2000/svg">
<path fill-rule="evenodd" clip-rule="evenodd" d="M4.11424 9.47184L5.44244 8.36142L5.52679 8.29098C6.00214 7.89425 6.37539 7.58272 6.61604 7.18001C6.82748 6.82618 6.95667 6.42936 6.99407 6.01887C7.03664 5.55167 6.91833 5.08012 6.76767 4.47958L6.76766 4.47957L6.76766 4.47956L6.74095 4.37296L6.376 2.91319L6.37308 2.90147L6.37306 2.90141L6.37305 2.90135C6.35689 2.83672 6.34435 2.78652 6.33093 2.73988C6.0019 1.59587 4.97417 0.793438 3.78451 0.751693C3.736 0.749991 3.68424 0.749995 3.6176 0.75H3.61754H3.60545C3.56568 0.75 3.53672 0.750061 3.47743 0.752679C2.72426 0.785938 2.05434 1.16616 1.59015 1.67784C1.14306 2.17068 0.835872 2.84164 0.849635 3.5631L0.848728 3.57873C0.848573 3.58906 0.848626 3.60599 0.848751 3.61259L0.849286 3.62844L0.850111 3.64357L0.850951 3.65517L0.851589 3.66266L0.851857 3.66558L0.852346 3.67069L0.852832 3.67568C1.06875 5.8887 1.62194 7.88365 2.49613 9.6235C3.79538 12.2093 5.79032 14.2042 8.37613 15.5035C10.116 16.3777 12.1109 16.9309 14.3239 17.1468L14.3289 17.1473L14.334 17.1478L14.337 17.148L14.3445 17.1487L14.3561 17.1495L14.3712 17.1503L14.387 17.1509C14.3936 17.151 14.4106 17.1511 14.4209 17.1509L14.4365 17.15C15.158 17.1638 15.8289 16.8566 16.3218 16.4095C16.8335 15.9453 17.2137 15.2754 17.2469 14.5222C17.2496 14.4629 17.2496 14.4339 17.2496 14.3942V14.3821V14.382C17.2496 14.3154 17.2496 14.2636 17.2479 14.2151C17.2062 13.0255 16.4038 11.9977 15.2597 11.6687C15.2131 11.6553 15.1629 11.6427 15.0982 11.6266L15.0864 11.6236L13.6267 11.2587L13.5201 11.232L13.52 11.232L13.52 11.232C12.9195 11.0813 12.448 10.963 11.9808 11.0056C11.5703 11.043 11.1734 11.1721 10.8196 11.3836C10.4169 11.6242 10.1054 11.9975 9.70865 12.4728L9.6382 12.5572L8.52779 13.8854C6.65477 12.8302 5.16944 11.3449 4.11424 9.47184ZM14.5763 17.1215L14.5938 17.1165C14.6088 17.1121 14.6274 17.106 14.6483 17.098C14.6689 17.0901 14.6952 17.079 14.7247 17.0637C14.7366 17.0574 14.7615 17.0433 14.7743 17.0355C14.7886 17.0265 14.8181 17.0063 14.8333 16.995C14.8501 16.9819 14.8844 16.9525 14.9019 16.9361C14.9209 16.917 14.9587 16.8745 14.9773 16.8509C14.997 16.8238 15.0341 16.7642 15.0512 16.7317C15.068 16.6956 15.0964 16.6186 15.1077 16.578C15.117 16.5352 15.128 16.4481 15.1297 16.4041C15.1291 16.3739 15.1245 16.3238 15.1192 16.2825C15.0772 16.2981 15.0347 16.3123 14.9919 16.325C14.9464 16.709 14.7085 17.0386 14.5763 17.1215ZM0.878117 3.42333C0.961057 3.29112 1.29061 3.05324 1.67468 3.00773C1.68734 2.96489 1.70151 2.92244 1.71712 2.88044C1.67579 2.8751 1.62564 2.87057 1.59538 2.86995C1.55137 2.87163 1.46425 2.88266 1.42144 2.89195C1.38082 2.90324 1.30391 2.93165 1.26777 2.94845C1.23532 2.9656 1.17576 3.00272 1.14863 3.02236C1.12506 3.04099 1.0825 3.07885 1.06341 3.09785C1.04705 3.11526 1.01766 3.14961 1.00453 3.16639C0.993302 3.18158 0.973093 3.2111 0.964051 3.22536C0.956274 3.23822 0.942224 3.26305 0.935906 3.27498C0.92062 3.3045 0.90951 3.33077 0.901607 3.35139C0.893594 3.37229 0.887563 3.39083 0.883079 3.40589L0.878117 3.42333ZM12.4996 0.750103C12.0854 0.750103 11.7496 1.08589 11.7496 1.5001C11.7496 1.91432 12.0854 2.2501 12.4996 2.2501H14.689L10.9693 5.96977C10.6764 6.26267 10.6764 6.73754 10.9693 7.03043C11.2622 7.32333 11.7371 7.32333 12.03 7.03043L15.7497 3.31076V5.5001C15.7497 5.91432 16.0854 6.2501 16.4997 6.2501C16.9139 6.2501 17.2497 5.91432 17.2497 5.5001V1.5001C17.2497 1.08589 16.9139 0.750103 16.4997 0.750103H12.4996Z" fill="white"/>
</svg>
