<svg width="396" height="395" viewBox="0 0 396 395" fill="none" xmlns="http://www.w3.org/2000/svg">
<path d="M97.665 368.192L97.2454 367.937C95.6124 366.964 93.9943 365.99 92.3462 364.941C92.0616 364.761 91.7769 364.596 91.5072 364.402C91.2375 364.207 90.9678 364.042 90.6682 363.847C89.964 363.428 89.3048 362.978 88.6306 362.529C87.9564 362.079 87.2972 361.645 86.623 361.165C84.8401 359.967 83.0572 358.708 81.2892 357.435C81.1544 357.315 81.0196 357.24 80.8697 357.12C79.6412 356.236 78.4126 355.307 77.214 354.363C76.8245 354.079 76.4649 353.809 76.0754 353.494C75.6858 353.18 75.7757 353.24 75.596 353.135C74.0977 351.936 72.5995 350.708 71.1012 349.479C70.8466 349.254 70.5619 349.03 70.3222 348.805C69.3333 347.996 68.3595 347.157 67.4156 346.303C67.056 346.018 66.6815 345.719 66.3219 345.374C66.1264 345.174 65.9161 344.988 65.6926 344.82C65.408 344.565 65.1083 344.295 64.8236 344.011C63.655 342.952 62.5014 341.873 61.3627 340.774C60.2241 339.696 59.1004 338.602 57.9917 337.463L57.0178 336.474C56.9279 336.37 56.853 336.265 56.7631 336.175L56.5084 335.92C55.7893 335.201 55.0102 334.422 54.366 333.718C53.7217 333.014 53.0026 332.219 52.2984 331.485C50.965 329.987 49.6166 328.489 48.3131 326.991L47.7887 326.376C46.4103 324.878 45.1368 323.23 43.8184 321.612C43.8184 321.492 43.6536 321.417 43.5937 321.297C42.2902 319.709 41.0317 318.061 39.8031 316.443C38.5746 314.825 37.2112 312.967 35.9527 311.169C35.4433 310.48 35.0088 309.806 34.4544 309.117C33.9001 308.428 33.5405 307.708 33.0611 307.019C32.7764 306.63 32.5067 306.18 32.2221 305.761C31.9374 305.341 31.6677 304.922 31.413 304.502C31.1583 304.083 30.8886 303.723 30.604 303.304C30.3193 302.884 30.2444 302.719 30.0496 302.45L29.705 301.88C29.4953 301.551 29.2855 301.191 29.0908 300.846C28.896 300.502 28.7012 300.217 28.5064 299.873L27.9221 298.899C27.5925 298.344 27.2629 297.79 26.9183 297.251C26.5737 296.711 26.4539 296.472 26.2441 296.082C26.0344 295.693 25.6598 295.108 25.3901 294.584C25.3002 294.449 25.2253 294.284 25.1354 294.134C24.7159 293.385 24.3264 292.636 23.9069 291.887L23.7421 291.572C23.2626 290.703 22.8132 289.879 22.3787 289.01C22.1539 288.531 21.8992 288.081 21.6745 287.647L21.0003 286.388C20.9086 286.155 20.7984 285.93 20.6707 285.714C20.2811 284.935 19.9216 284.216 19.562 283.377C19.2024 282.538 18.6031 281.384 18.1387 280.381C17.9589 280.021 17.7941 279.661 17.6293 279.272C17.4645 278.882 17.2996 278.568 17.1498 278.208L15.5617 274.612C15.1122 273.549 14.6777 272.485 14.2582 271.436C13.8387 270.387 13.4941 269.533 13.1645 268.589C12.8349 267.646 12.3555 266.402 11.936 265.323C11.5165 264.245 11.2618 263.48 10.9322 262.537C10.7973 262.132 10.6625 261.728 10.5126 261.323C10.5126 261.218 10.5126 261.128 10.4377 261.053L10.0931 260.124C9.37399 257.847 8.59491 255.63 7.98063 253.292C7.666 252.229 7.39632 251.225 7.08169 250.176C6.76706 249.127 6.52734 248.079 6.27264 247.045C6.00296 246.011 5.74826 244.962 5.49356 243.869C5.32876 243.164 5.16395 242.505 5.01413 241.831C5.01413 241.531 4.87929 241.187 4.80437 240.887C4.54967 239.793 4.29497 238.655 4.1002 237.531C3.90543 236.407 3.65073 235.389 3.45596 234.295C3.29116 233.456 3.12635 232.632 2.99151 231.793C2.76678 230.444 2.54204 229.141 2.34727 227.793C2.34727 227.523 2.25738 227.208 2.19745 226.939C2.03264 225.74 1.86784 224.511 1.70303 223.328C1.70303 223.178 1.70303 223.073 1.70303 222.938C1.47829 221.29 1.31349 219.642 1.17865 217.964C1.17865 217.664 1.08875 217.32 1.05879 217.02C0.923947 215.672 0.81907 214.308 0.729176 212.945C0.729176 212.466 0.639282 212.016 0.6243 211.552C0.609318 211.087 0.534406 210.428 0.504441 209.874C0.474477 209.319 0.414548 208.57 0.399565 207.926C0.309671 206.697 0.249741 205.469 0.219776 204.24C0.219776 203.761 0.219776 203.311 0.219776 202.847C0.219776 201.169 0.129883 199.491 0.129883 197.828C0.129883 196.24 0.129883 194.667 0.129883 193.108C0.129883 191.91 0.129882 190.711 0.234759 189.513C0.234759 188.868 0.234759 188.254 0.354617 187.61C0.474476 186.966 0.354618 186.636 0.429529 186.112C0.429529 184.883 0.579352 183.685 0.654264 182.456C0.789105 180.883 0.93893 179.355 1.07377 177.826C1.07377 177.737 1.07377 177.647 1.07377 177.602C1.07377 177.557 1.07377 177.422 1.07377 177.347C1.20861 175.759 1.40338 174.171 1.59815 172.598C1.79292 171.024 1.98769 169.751 2.21243 168.328C2.23783 168.105 2.27787 167.885 2.33229 167.668C2.85667 164.058 3.53088 160.522 4.25003 156.971C4.53469 155.697 4.77441 154.409 5.08904 153.121C5.28381 152.341 5.44861 151.532 5.64338 150.753C5.83816 149.974 5.95801 149.525 6.12282 148.91C6.15363 148.732 6.19873 148.557 6.25766 148.386C6.34755 148.027 6.42247 147.652 6.54233 147.292C6.66218 146.933 6.7371 146.543 6.81201 146.214L6.9918 145.569C7.1566 144.925 7.35137 144.311 7.54614 143.667V143.337C7.63604 143.082 7.69597 142.798 7.77088 142.558C8.05554 141.554 8.34021 140.565 8.63985 139.561C8.71806 139.371 8.78314 139.176 8.83463 138.977C9.31406 137.479 9.80848 135.981 10.3329 134.378C10.4677 133.928 10.6325 133.464 10.7673 133.014C11.082 132.115 11.3816 131.246 11.7262 130.362C11.7817 130.17 11.857 129.984 11.951 129.808C12.5053 128.31 13.0596 126.812 13.6739 125.313C14.2882 123.815 14.8425 122.317 15.4568 120.819C16.0711 119.32 16.6254 118.077 17.2397 116.743C17.7491 115.635 18.2435 114.541 18.738 113.417C19.2324 112.294 19.7717 111.245 20.3261 110.166C20.7156 109.357 21.1052 108.548 21.5247 107.754L21.9442 106.915C22.2738 106.286 22.6184 105.611 23.0079 104.967C23.6671 103.634 24.4312 102.285 25.1804 100.982C25.7047 100.008 26.304 99.0193 26.8584 97.9855L27.2479 97.3263C28.4765 95.2587 29.735 93.1911 31.0385 91.1535C31.428 90.4793 31.8775 89.8501 32.297 89.2058C32.7165 88.5616 33.136 87.9173 33.5555 87.3031L33.6304 87.1682C34.2147 86.2992 34.829 85.4303 35.4433 84.5913C36.0575 83.7522 36.7318 82.7334 37.391 81.9544C37.5558 81.6997 37.7206 81.4749 37.9154 81.2202C38.9791 79.722 40.1028 78.2238 41.2414 76.8154C41.4128 76.5561 41.5979 76.306 41.7958 76.0663L43.9982 73.3245C44.0794 73.2348 44.1544 73.1397 44.2229 73.0399C44.2229 73.0399 44.2229 73.0399 44.3128 72.935L46.5452 70.2532C47.3542 69.2793 48.1633 68.3654 48.9723 67.4065L49.5566 66.7623C50.8901 65.264 52.2385 63.7658 53.6019 62.3575C53.7317 62.1976 53.8815 62.0328 54.0513 61.863C54.9203 60.9341 55.7743 60.0801 56.6733 59.1512L56.7781 59.0464C57.1677 58.6268 57.5572 58.2373 57.9767 57.8478C58.3962 57.4582 58.8457 56.9488 59.3251 56.4994L59.6847 56.1697C60.5986 55.2708 61.5275 54.3868 62.4415 53.5179L65.6627 50.5214L66.5766 49.6974C66.8762 49.4127 67.2208 49.128 67.5205 48.8883C68.6741 47.8545 69.8727 46.8208 71.0713 45.8919L71.3709 45.6372L71.6856 45.4124C72.3298 44.888 72.989 44.3187 73.6632 43.7943C73.9928 43.5097 74.3824 43.24 74.727 42.9253L75.7907 42.0863C76.1546 41.8304 76.5047 41.5553 76.8395 41.2623L77.6785 40.648L78.5175 40.0038L79.6112 39.1648C80.0307 38.8352 80.4652 38.5205 80.9147 38.2209L82.2331 37.2321L83.4617 36.408C83.7314 36.1833 84.016 35.9885 84.2707 35.7938C84.5554 35.629 84.8401 35.4342 85.1097 35.2544C85.3794 35.0746 85.9188 34.6701 86.3083 34.4304C87.0874 33.891 87.8066 33.3666 88.6306 32.8572C89.0501 32.5875 89.4996 32.3029 89.964 31.9733L90.6382 31.5238L91.3274 31.0144C92.1664 30.46 93.0654 29.9207 93.9343 29.3963C94.1059 29.2969 94.271 29.1868 94.4288 29.0667C95.4625 28.4524 96.4364 27.8381 97.4252 27.2239C97.5719 27.1083 97.7331 27.0126 97.9047 26.9392C98.2942 26.7145 98.6838 26.4598 99.1033 26.25C100.212 25.6058 101.336 24.9615 102.444 24.3772C104.032 23.4783 105.621 22.6393 107.239 21.8002C108.857 20.9612 110.475 20.1672 112.123 19.4031C112.827 19.0435 113.621 18.7139 114.25 18.3693C114.88 18.0247 115.749 17.7101 116.423 17.3954C116.618 17.3954 116.842 17.2007 117.067 17.0958C117.297 17.0137 117.522 16.9187 117.741 16.8111C118.91 16.2867 120.079 15.7773 121.277 15.3129C121.668 15.1232 122.068 14.9532 122.476 14.8035C123.734 14.2791 125.023 13.7697 126.296 13.3053C126.596 13.1573 126.907 13.0321 127.225 12.9307C127.499 12.8152 127.779 12.7152 128.064 12.631C129.562 12.0767 130.911 11.5673 132.349 11.1328C209.194 161.945 171.798 290.898 97.665 368.192Z" fill="white"/>
<path d="M395.472 197.638V198.027C395.472 199.81 395.472 201.623 395.397 203.391C395.322 205.159 395.248 207.091 395.143 208.934C395.158 209.159 395.158 209.384 395.143 209.608C395.053 211.197 394.918 212.785 394.783 214.343C394.785 214.689 394.755 215.036 394.693 215.377C394.588 216.875 394.439 218.283 394.274 219.707C394.274 219.931 394.274 220.186 394.199 220.396L394.109 220.965C394.004 221.939 393.854 222.943 393.749 223.962C393.644 224.98 393.465 225.939 393.33 226.958C393.33 227.333 393.24 227.692 393.195 228.052C393.075 228.861 392.94 229.67 392.775 230.449C392.656 231.198 392.521 231.947 392.386 232.651C392.331 232.873 392.291 233.098 392.266 233.325C392.266 233.52 392.266 233.715 392.161 233.91C391.966 235.108 391.742 236.307 391.487 237.476C391.397 237.805 391.352 238.18 391.262 238.509L391.172 238.869L390.678 241.131C390.483 242.03 390.288 242.884 390.064 243.753C389.839 244.622 389.539 245.956 389.255 247.049C388.97 248.143 388.61 249.551 388.251 250.78C388.161 251.095 388.086 251.424 387.966 251.769C387.846 252.113 387.771 252.488 387.667 252.847C387.322 254.046 386.962 255.215 386.603 256.368C386.498 256.728 386.348 257.117 386.243 257.477C386.243 257.567 386.243 257.612 386.153 257.702C385.314 260.324 384.43 262.946 383.501 265.538C382.677 267.83 381.808 270.032 380.85 272.295C380.685 272.654 380.55 273.044 380.415 273.403C380.28 273.763 380.1 274.167 379.936 274.527C379.636 275.246 379.321 276.025 378.992 276.729C378.662 277.434 378.318 278.228 378.018 278.932C377.718 279.636 377.538 279.996 377.314 280.43C377.209 280.655 377.119 280.879 376.999 281.104C376.879 281.329 376.804 281.494 376.729 281.689C376.475 282.228 376.22 282.722 375.995 283.187C375.411 284.4 374.827 285.599 374.212 286.767C373.493 288.266 372.714 289.644 371.98 291.037C371.246 292.431 370.482 293.854 369.643 295.248C369.058 296.311 368.474 297.315 367.83 298.349C366.961 299.847 366.062 301.27 365.148 302.724C364.564 303.638 364.009 304.567 363.425 305.436C362.661 306.544 361.927 307.668 361.193 308.777C361.098 308.923 360.992 309.064 360.878 309.196C360.264 310.095 359.62 311.009 358.975 311.908C358.764 312.245 358.534 312.57 358.286 312.882C358.286 312.957 358.166 313.077 358.091 313.166C357.672 313.766 357.222 314.38 356.743 314.994C356.263 315.609 355.994 316.028 355.604 316.492C355.215 316.957 354.69 317.721 354.181 318.335C353.372 319.399 352.563 320.418 351.724 321.452C351.624 321.569 351.534 321.695 351.454 321.826C351.289 322.021 351.14 322.186 351.005 322.381C350.39 323.07 349.776 323.804 349.192 324.523C348.608 325.242 348.383 325.527 347.963 326.021L346.705 327.519L346.12 328.164L344.622 329.752C344.143 330.306 343.678 330.801 343.124 331.34C341.955 332.614 340.787 333.872 339.618 335.071C338.779 335.94 337.94 336.779 337.101 337.618C336.262 338.457 335.423 339.296 334.554 340.105L332.007 342.652C331.138 343.431 330.284 344.24 329.385 345.019C328.082 346.187 326.703 347.356 325.37 348.51C324.036 349.663 322.658 350.787 321.265 351.881C320.356 352.63 319.427 353.364 318.478 354.083C316.605 355.581 314.717 356.93 312.785 358.323C311.841 358.997 310.867 359.687 309.878 360.361C308.889 361.035 307.93 361.724 306.882 362.368L303.885 364.301C303.496 364.541 303.091 364.796 302.702 365.08C302.557 365.157 302.417 365.242 302.282 365.335L300.11 366.668C299.136 367.253 298.192 367.837 297.218 368.376C294.341 370.044 291.41 371.662 288.423 373.231C287.285 373.845 286.101 374.429 284.933 374.984C283.434 375.703 281.936 376.482 280.438 377.126C278.94 377.77 277.172 378.624 275.524 379.328C262.414 313.077 282.745 233.475 364.279 168.242C285.951 204.529 209.691 323.744 224.404 393.502C223.25 393.667 222.142 393.801 220.988 393.936C219.834 394.071 218.321 394.281 216.943 394.386C216.418 394.386 215.894 394.506 215.355 394.536C214.216 394.64 213.047 394.73 211.864 394.805H211.369H210.62H210.5C210.306 394.82 210.11 394.82 209.916 394.805L206.095 395C205.391 395 204.702 395 203.998 395H201.885C200.492 395 199.069 395 197.675 395C195.773 395 193.84 395 191.952 394.91L189.105 394.805C188.162 394.805 187.203 394.715 186.259 394.655C184.356 394.55 182.498 394.401 180.625 394.236C179.622 394.161 178.648 394.041 177.629 393.936C176.61 393.831 175.876 393.771 174.977 393.652C244.825 319.309 216.388 108.927 133.281 10.6729L136.577 9.56416L139.918 8.50042L141.417 8.05094L142.915 7.63144C143.829 7.36175 144.788 7.07709 145.732 6.82239C146.675 6.56769 147.634 6.34295 148.608 6.10324L150.106 5.68373C150.586 5.56387 151.095 5.42903 151.605 5.32415L156.009 4.32034C157.508 3.94578 159.171 3.64614 160.759 3.36147L162.257 3.09179C162.796 2.97193 163.291 2.89701 163.755 2.80712L164.519 2.67228C165.358 2.50748 166.182 2.38762 167.021 2.25277L168.894 1.99808L171.411 1.66846C172.58 1.48868 173.749 1.35384 174.917 1.219C174.971 1.20567 175.028 1.20567 175.082 1.219C176.985 0.99426 178.888 0.799491 180.805 0.66465C182.004 0.544791 183.187 0.469877 184.386 0.409947C184.645 0.394518 184.906 0.394518 185.165 0.409947C185.495 0.409947 185.824 0.409947 186.169 0.409947H187.173C187.637 0.409947 188.117 0.320056 188.596 0.290091H188.761C189.315 0.290091 189.9 0.290091 190.469 0.290091C191.413 0.290091 192.357 0.200195 193.33 0.200195C194.724 0.200195 196.147 0.200195 197.556 0.200195C200.986 0.200195 204.357 0.290087 207.729 0.454892C209.407 0.544787 211.085 0.649665 212.748 0.784506C214.411 0.919347 216.104 1.06917 217.782 1.23398L221.827 1.68344L223.16 1.84825C224.524 2.01306 225.902 2.20783 227.236 2.43256L227.88 2.52246C229.078 2.68726 230.247 2.88203 231.416 3.10677C233.798 3.49631 236.165 3.97574 238.502 4.4402L240.825 4.9496L241.214 5.02451L243.671 5.6238C244.555 5.81857 245.454 6.04331 246.323 6.25306C246.787 6.40289 247.267 6.50776 247.821 6.6426L251.162 7.54155C254.159 8.38056 256.99 9.27949 259.867 10.2234C260.646 10.4781 261.455 10.7478 262.234 11.0324L264.616 11.8714H264.781C266.369 12.4408 267.958 13.055 269.516 13.6693C271.074 14.2836 272.707 14.9129 274.265 15.5871C275.044 15.9017 275.763 16.2313 276.602 16.5909L278.955 17.6247L283.554 19.7971L288.049 22.0594C289.547 22.8385 291.045 23.5577 292.544 24.4566C294.042 25.3556 295.675 26.2245 297.233 27.1085C297.398 27.2283 297.593 27.3033 297.772 27.4231C298.971 28.1123 300.14 28.9213 301.308 29.5656C302.702 30.4046 304.065 31.3035 305.413 32.1575L308.545 34.2551C309.653 35.0042 310.747 35.7533 311.841 36.5324L311.976 36.6522L312.65 37.1167C313.654 37.8209 314.628 38.6149 315.646 39.2742L315.961 39.5289C317.175 40.4128 318.388 41.3417 319.557 42.2856C320.725 43.2295 321.594 43.8737 322.553 44.7127C323.512 45.5518 324.756 46.5556 325.864 47.4995C326.628 48.1437 327.363 48.8179 328.187 49.5071C328.381 49.6569 328.546 49.8217 328.741 49.9865L331.063 52.0841C332.007 52.938 332.936 53.837 333.85 54.706C335.438 56.2042 337.001 57.7474 338.539 59.3355C338.809 59.5902 339.064 59.8599 339.318 60.1446C340.817 61.6428 342.315 63.2609 343.813 64.879C345.311 66.4971 346.959 68.4298 348.503 70.2427C349.282 71.1416 350.001 72.0555 350.75 72.9694C351.499 73.8834 352.248 74.8123 352.982 75.7711C354.975 78.2432 356.863 80.7902 358.676 83.3822C359.38 84.356 360.054 85.3299 360.713 86.3786C362.062 88.3263 363.365 90.304 364.654 92.3716C365.298 93.3754 365.912 94.4092 366.541 95.368C367.38 96.7314 368.189 98.1398 368.969 99.5032C369.568 100.537 370.152 101.571 370.736 102.62C371.321 103.668 371.875 104.717 372.429 105.781C373.553 107.863 374.617 110.021 375.666 112.163C378.466 117.959 380.967 123.895 383.157 129.947C384.251 132.944 385.314 135.94 386.258 139.087C387.232 142.158 388.131 145.304 388.94 148.465C389.749 151.627 390.438 154.803 391.142 158.009C393.907 171.041 395.357 184.317 395.472 197.638Z" fill="white"/>
</svg>
