<svg width="18" height="18" viewBox="0 0 18 18" fill="none" xmlns="http://www.w3.org/2000/svg">
<path fill-rule="evenodd" clip-rule="evenodd" d="M17.3337 9.00008C17.3337 13.6025 13.6027 17.3334 9.00033 17.3334C4.39795 17.3334 0.666992 13.6025 0.666992 9.00008C0.666992 4.39771 4.39795 0.666748 9.00033 0.666748C13.6027 0.666748 17.3337 4.39771 17.3337 9.00008ZM9.0002 1.58321C9.41441 1.58321 9.7502 1.919 9.7502 2.33321V3.16654C9.7502 3.58076 9.41441 3.91654 9.0002 3.91654C8.58599 3.91654 8.2502 3.58076 8.2502 3.16654V2.33321C8.2502 1.919 8.58599 1.58321 9.0002 1.58321ZM2.33366 8.25008C1.91945 8.25008 1.58366 8.58587 1.58366 9.00008C1.58366 9.4143 1.91945 9.75008 2.33366 9.75008H3.16699C3.58121 9.75008 3.91699 9.4143 3.91699 9.00008C3.91699 8.58587 3.58121 8.25008 3.16699 8.25008H2.33366ZM15.667 9.75008L14.8337 9.75008C14.4194 9.75008 14.0837 9.4143 14.0837 9.00008C14.0837 8.58587 14.4194 8.25008 14.8337 8.25008L15.667 8.25008C16.0812 8.25008 16.417 8.58587 16.417 9.00008C16.417 9.41429 16.0812 9.75008 15.667 9.75008ZM14.1139 4.94708C14.4068 4.65419 14.4068 4.17931 14.1139 3.88642C13.821 3.59352 13.3461 3.59352 13.0532 3.88642L12.2199 4.71975C11.927 5.01264 11.927 5.48752 12.2199 5.78041C12.5128 6.07331 12.9876 6.07331 13.2805 5.78041L14.1139 4.94708ZM12.6367 12.6364C12.9296 12.3435 13.4044 12.3435 13.6973 12.6364L14.5307 13.4698C14.8235 13.7626 14.8235 14.2375 14.5307 14.5304C14.2378 14.8233 13.7629 14.8233 13.47 14.5304L12.6367 13.6971C12.3438 13.4042 12.3438 12.9293 12.6367 12.6364ZM5.78066 13.2804C6.07355 12.9875 6.07355 12.5126 5.78066 12.2198C5.48776 11.9269 5.01289 11.9269 4.72 12.2198L3.88666 13.0531C3.59377 13.346 3.59377 13.8209 3.88666 14.1137C4.17955 14.4066 4.65443 14.4066 4.94732 14.1137L5.78066 13.2804ZM3.88654 3.88642C4.17943 3.59352 4.6543 3.59352 4.9472 3.88642L5.78053 4.71975C6.07342 5.01264 6.07342 5.48752 5.78053 5.78041C5.48764 6.07331 5.01276 6.07331 4.71987 5.78041L3.88654 4.94708C3.59364 4.65419 3.59364 4.17931 3.88654 3.88642ZM7.33356 9.46301C7.33356 12.1791 10.6669 12.1791 10.6669 9.46301C10.6669 8.60051 10.2518 7.86098 9.83598 7.33647C9.6865 7.14793 9.61176 7.05367 9.35262 6.95608C9.19265 6.89584 8.80772 6.89584 8.64775 6.95609C8.38861 7.05369 8.31388 7.14796 8.1644 7.3365C7.74857 7.861 7.33356 8.60052 7.33356 9.46301Z" fill="white"/>
</svg>
