<svg width="1006" height="1020" viewBox="0 0 1006 1020" fill="none" xmlns="http://www.w3.org/2000/svg">
<g opacity="0.1">
<path d="M804.789 489.37C804.789 592.6 729.927 689.287 627.65 717.575C620.691 719.475 613.098 719.475 606.139 717.575C503.862 689.287 429 592.6 429 489.37V396.694C429 379.383 442.075 359.751 458.313 353.206L575.773 305.075C602.133 294.308 631.867 294.308 658.227 305.075L775.687 353.206C791.714 359.751 805 379.383 805 396.694L804.789 489.37Z" stroke="white" stroke-width="50" stroke-linecap="round" stroke-linejoin="round"/>
<path d="M616.895 518.501C640.188 518.501 659.071 499.598 659.071 476.28C659.071 452.962 640.188 434.059 616.895 434.059C593.602 434.059 574.719 452.962 574.719 476.28C574.719 499.598 593.602 518.501 616.895 518.501Z" stroke="white" stroke-width="50" stroke-miterlimit="10" stroke-linecap="round" stroke-linejoin="round"/>
<path d="M616.895 518.501V581.833" stroke="white" stroke-width="50" stroke-miterlimit="10" stroke-linecap="round" stroke-linejoin="round"/>
</g>
<g opacity="0.4">
<circle cx="598" cy="874" r="6" fill="white"/>
<circle cx="598" cy="930" r="6" fill="white"/>
<circle cx="598" cy="986" r="6" fill="white"/>
<circle cx="673" cy="874" r="6" fill="white"/>
<circle cx="748" cy="874" r="6" fill="white"/>
<circle cx="673" cy="930" r="6" fill="white"/>
<circle cx="748" cy="930" r="6" fill="white"/>
<circle cx="673" cy="986" r="6" fill="white"/>
<circle cx="748" cy="986" r="6" fill="white"/>
<circle cx="598" cy="846" r="6" fill="white"/>
<circle cx="598" cy="902" r="6" fill="white"/>
<circle cx="598" cy="958" r="6" fill="white"/>
<circle cx="598" cy="1014" r="6" fill="white"/>
<circle cx="673" cy="846" r="6" fill="white"/>
<circle cx="748" cy="846" r="6" fill="white"/>
<circle cx="673" cy="902" r="6" fill="white"/>
<circle cx="748" cy="902" r="6" fill="white"/>
<circle cx="673" cy="958" r="6" fill="white"/>
<circle cx="748" cy="958" r="6" fill="white"/>
<circle cx="673" cy="1014" r="6" fill="white"/>
<circle cx="748" cy="1014" r="6" fill="white"/>
<circle cx="623" cy="874" r="6" fill="white"/>
<circle cx="623" cy="930" r="6" fill="white"/>
<circle cx="623" cy="986" r="6" fill="white"/>
<circle cx="698" cy="874" r="6" fill="white"/>
<circle cx="773" cy="874" r="6" fill="white"/>
<circle cx="698" cy="930" r="6" fill="white"/>
<circle cx="773" cy="930" r="6" fill="white"/>
<circle cx="698" cy="986" r="6" fill="white"/>
<circle cx="773" cy="986" r="6" fill="white"/>
<circle cx="623" cy="846" r="6" fill="white"/>
<circle cx="623" cy="902" r="6" fill="white"/>
<circle cx="623" cy="958" r="6" fill="white"/>
<circle cx="623" cy="1014" r="6" fill="white"/>
<circle cx="698" cy="846" r="6" fill="white"/>
<circle cx="773" cy="846" r="6" fill="white"/>
<circle cx="698" cy="902" r="6" fill="white"/>
<circle cx="773" cy="902" r="6" fill="white"/>
<circle cx="698" cy="958" r="6" fill="white"/>
<circle cx="773" cy="958" r="6" fill="white"/>
<circle cx="698" cy="1014" r="6" fill="white"/>
<circle cx="773" cy="1014" r="6" fill="white"/>
<circle cx="648" cy="874" r="6" fill="white"/>
<circle cx="648" cy="930" r="6" fill="white"/>
<circle cx="648" cy="986" r="6" fill="white"/>
<circle cx="723" cy="874" r="6" fill="white"/>
<circle cx="798" cy="874" r="6" fill="white"/>
<circle cx="723" cy="930" r="6" fill="white"/>
<circle cx="798" cy="930" r="6" fill="white"/>
<circle cx="723" cy="986" r="6" fill="white"/>
<circle cx="798" cy="986" r="6" fill="white"/>
<circle cx="648" cy="846" r="6" fill="white"/>
<circle cx="648" cy="902" r="6" fill="white"/>
<circle cx="648" cy="958" r="6" fill="white"/>
<circle cx="648" cy="1014" r="6" fill="white"/>
<circle cx="723" cy="846" r="6" fill="white"/>
<circle cx="798" cy="846" r="6" fill="white"/>
<circle cx="723" cy="902" r="6" fill="white"/>
<circle cx="798" cy="902" r="6" fill="white"/>
<circle cx="723" cy="958" r="6" fill="white"/>
<circle cx="798" cy="958" r="6" fill="white"/>
<circle cx="723" cy="1014" r="6" fill="white"/>
<circle cx="798" cy="1014" r="6" fill="white"/>
</g>
<g opacity="0.2">
<circle cx="748" cy="394" r="6" transform="rotate(-90 748 394)" fill="white"/>
<circle cx="804" cy="394" r="6" transform="rotate(-90 804 394)" fill="white"/>
<circle cx="860" cy="394" r="6" transform="rotate(-90 860 394)" fill="white"/>
<circle cx="916" cy="394" r="6" transform="rotate(-90 916 394)" fill="white"/>
<circle cx="972" cy="394" r="6" transform="rotate(-90 972 394)" fill="white"/>
<circle cx="748" cy="319" r="6" transform="rotate(-90 748 319)" fill="white"/>
<circle cx="748" cy="244" r="6" transform="rotate(-90 748 244)" fill="white"/>
<circle cx="804" cy="319" r="6" transform="rotate(-90 804 319)" fill="white"/>
<circle cx="804" cy="244" r="6" transform="rotate(-90 804 244)" fill="white"/>
<circle cx="860" cy="319" r="6" transform="rotate(-90 860 319)" fill="white"/>
<circle cx="860" cy="244" r="6" transform="rotate(-90 860 244)" fill="white"/>
<circle cx="916" cy="319" r="6" transform="rotate(-90 916 319)" fill="white"/>
<circle cx="916" cy="244" r="6" transform="rotate(-90 916 244)" fill="white"/>
<circle cx="972" cy="319" r="6" transform="rotate(-90 972 319)" fill="white"/>
<circle cx="972" cy="244" r="6" transform="rotate(-90 972 244)" fill="white"/>
<circle cx="776" cy="394" r="6" transform="rotate(-90 776 394)" fill="white"/>
<circle cx="832" cy="394" r="6" transform="rotate(-90 832 394)" fill="white"/>
<circle cx="888" cy="394" r="6" transform="rotate(-90 888 394)" fill="white"/>
<circle cx="944" cy="394" r="6" transform="rotate(-90 944 394)" fill="white"/>
<circle cx="1000" cy="394" r="6" transform="rotate(-90 1000 394)" fill="white"/>
<circle cx="776" cy="319" r="6" transform="rotate(-90 776 319)" fill="white"/>
<circle cx="776" cy="244" r="6" transform="rotate(-90 776 244)" fill="white"/>
<circle cx="832" cy="319" r="6" transform="rotate(-90 832 319)" fill="white"/>
<circle cx="832" cy="244" r="6" transform="rotate(-90 832 244)" fill="white"/>
<circle cx="888" cy="319" r="6" transform="rotate(-90 888 319)" fill="white"/>
<circle cx="888" cy="244" r="6" transform="rotate(-90 888 244)" fill="white"/>
<circle cx="944" cy="319" r="6" transform="rotate(-90 944 319)" fill="white"/>
<circle cx="944" cy="244" r="6" transform="rotate(-90 944 244)" fill="white"/>
<circle cx="1000" cy="319" r="6" transform="rotate(-90 1000 319)" fill="white"/>
<circle cx="1000" cy="244" r="6" transform="rotate(-90 1000 244)" fill="white"/>
<circle cx="748" cy="369" r="6" transform="rotate(-90 748 369)" fill="white"/>
<circle cx="804" cy="369" r="6" transform="rotate(-90 804 369)" fill="white"/>
<circle cx="860" cy="369" r="6" transform="rotate(-90 860 369)" fill="white"/>
<circle cx="916" cy="369" r="6" transform="rotate(-90 916 369)" fill="white"/>
<circle cx="972" cy="369" r="6" transform="rotate(-90 972 369)" fill="white"/>
<circle cx="748" cy="294" r="6" transform="rotate(-90 748 294)" fill="white"/>
<circle cx="748" cy="219" r="6" transform="rotate(-90 748 219)" fill="white"/>
<circle cx="804" cy="294" r="6" transform="rotate(-90 804 294)" fill="white"/>
<circle cx="804" cy="219" r="6" transform="rotate(-90 804 219)" fill="white"/>
<circle cx="860" cy="294" r="6" transform="rotate(-90 860 294)" fill="white"/>
<circle cx="860" cy="219" r="6" transform="rotate(-90 860 219)" fill="white"/>
<circle cx="916" cy="294" r="6" transform="rotate(-90 916 294)" fill="white"/>
<circle cx="916" cy="219" r="6" transform="rotate(-90 916 219)" fill="white"/>
<circle cx="972" cy="294" r="6" transform="rotate(-90 972 294)" fill="white"/>
<circle cx="972" cy="219" r="6" transform="rotate(-90 972 219)" fill="white"/>
<circle cx="776" cy="369" r="6" transform="rotate(-90 776 369)" fill="white"/>
<circle cx="832" cy="369" r="6" transform="rotate(-90 832 369)" fill="white"/>
<circle cx="888" cy="369" r="6" transform="rotate(-90 888 369)" fill="white"/>
<circle cx="944" cy="369" r="6" transform="rotate(-90 944 369)" fill="white"/>
<circle cx="1000" cy="369" r="6" transform="rotate(-90 1000 369)" fill="white"/>
<circle cx="776" cy="294" r="6" transform="rotate(-90 776 294)" fill="white"/>
<circle cx="776" cy="219" r="6" transform="rotate(-90 776 219)" fill="white"/>
<circle cx="832" cy="294" r="6" transform="rotate(-90 832 294)" fill="white"/>
<circle cx="832" cy="219" r="6" transform="rotate(-90 832 219)" fill="white"/>
<circle cx="888" cy="294" r="6" transform="rotate(-90 888 294)" fill="white"/>
<circle cx="888" cy="219" r="6" transform="rotate(-90 888 219)" fill="white"/>
<circle cx="944" cy="294" r="6" transform="rotate(-90 944 294)" fill="white"/>
<circle cx="944" cy="219" r="6" transform="rotate(-90 944 219)" fill="white"/>
<circle cx="1000" cy="294" r="6" transform="rotate(-90 1000 294)" fill="white"/>
<circle cx="1000" cy="219" r="6" transform="rotate(-90 1000 219)" fill="white"/>
<circle cx="748" cy="344" r="6" transform="rotate(-90 748 344)" fill="white"/>
<circle cx="804" cy="344" r="6" transform="rotate(-90 804 344)" fill="white"/>
<circle cx="860" cy="344" r="6" transform="rotate(-90 860 344)" fill="white"/>
<circle cx="916" cy="344" r="6" transform="rotate(-90 916 344)" fill="white"/>
<circle cx="972" cy="344" r="6" transform="rotate(-90 972 344)" fill="white"/>
<circle cx="748" cy="269" r="6" transform="rotate(-90 748 269)" fill="white"/>
<circle cx="748" cy="194" r="6" transform="rotate(-90 748 194)" fill="white"/>
<circle cx="804" cy="269" r="6" transform="rotate(-90 804 269)" fill="white"/>
<circle cx="804" cy="194" r="6" transform="rotate(-90 804 194)" fill="white"/>
<circle cx="860" cy="269" r="6" transform="rotate(-90 860 269)" fill="white"/>
<circle cx="860" cy="194" r="6" transform="rotate(-90 860 194)" fill="white"/>
<circle cx="916" cy="269" r="6" transform="rotate(-90 916 269)" fill="white"/>
<circle cx="916" cy="194" r="6" transform="rotate(-90 916 194)" fill="white"/>
<circle cx="972" cy="269" r="6" transform="rotate(-90 972 269)" fill="white"/>
<circle cx="972" cy="194" r="6" transform="rotate(-90 972 194)" fill="white"/>
<circle cx="776" cy="344" r="6" transform="rotate(-90 776 344)" fill="white"/>
<circle cx="832" cy="344" r="6" transform="rotate(-90 832 344)" fill="white"/>
<circle cx="888" cy="344" r="6" transform="rotate(-90 888 344)" fill="white"/>
<circle cx="944" cy="344" r="6" transform="rotate(-90 944 344)" fill="white"/>
<circle cx="1000" cy="344" r="6" transform="rotate(-90 1000 344)" fill="white"/>
<circle cx="776" cy="269" r="6" transform="rotate(-90 776 269)" fill="white"/>
<circle cx="776" cy="194" r="6" transform="rotate(-90 776 194)" fill="white"/>
<circle cx="832" cy="269" r="6" transform="rotate(-90 832 269)" fill="white"/>
<circle cx="832" cy="194" r="6" transform="rotate(-90 832 194)" fill="white"/>
<circle cx="888" cy="269" r="6" transform="rotate(-90 888 269)" fill="white"/>
<circle cx="888" cy="194" r="6" transform="rotate(-90 888 194)" fill="white"/>
<circle cx="944" cy="269" r="6" transform="rotate(-90 944 269)" fill="white"/>
<circle cx="944" cy="194" r="6" transform="rotate(-90 944 194)" fill="white"/>
<circle cx="1000" cy="269" r="6" transform="rotate(-90 1000 269)" fill="white"/>
<circle cx="1000" cy="194" r="6" transform="rotate(-90 1000 194)" fill="white"/>
</g>
<rect width="429" height="328" rx="62" fill="#652F78"/>
<g opacity="0.4">
<circle cx="90" cy="142" r="6" fill="white"/>
<circle cx="90" cy="198" r="6" fill="white"/>
<circle cx="90" cy="254" r="6" fill="white"/>
<circle cx="90" cy="310" r="6" fill="white"/>
<circle cx="90" cy="366" r="6" fill="white"/>
<circle cx="165" cy="142" r="6" fill="white"/>
<circle cx="240" cy="142" r="6" fill="white"/>
<circle cx="165" cy="198" r="6" fill="white"/>
<circle cx="240" cy="198" r="6" fill="white"/>
<circle cx="165" cy="254" r="6" fill="white"/>
<circle cx="240" cy="254" r="6" fill="white"/>
<circle cx="165" cy="310" r="6" fill="white"/>
<circle cx="240" cy="310" r="6" fill="white"/>
<circle cx="165" cy="366" r="6" fill="white"/>
<circle cx="240" cy="366" r="6" fill="white"/>
<circle cx="90" cy="170" r="6" fill="white"/>
<circle cx="90" cy="226" r="6" fill="white"/>
<circle cx="90" cy="282" r="6" fill="white"/>
<circle cx="90" cy="338" r="6" fill="white"/>
<circle cx="90" cy="394" r="6" fill="white"/>
<circle cx="165" cy="170" r="6" fill="white"/>
<circle cx="240" cy="170" r="6" fill="white"/>
<circle cx="165" cy="226" r="6" fill="white"/>
<circle cx="240" cy="226" r="6" fill="white"/>
<circle cx="165" cy="282" r="6" fill="white"/>
<circle cx="240" cy="282" r="6" fill="white"/>
<circle cx="165" cy="338" r="6" fill="white"/>
<circle cx="240" cy="338" r="6" fill="white"/>
<circle cx="165" cy="394" r="6" fill="white"/>
<circle cx="240" cy="394" r="6" fill="white"/>
<circle cx="115" cy="142" r="6" fill="white"/>
<circle cx="115" cy="198" r="6" fill="white"/>
<circle cx="115" cy="254" r="6" fill="white"/>
<circle cx="115" cy="310" r="6" fill="white"/>
<circle cx="115" cy="366" r="6" fill="white"/>
<circle cx="190" cy="142" r="6" fill="white"/>
<circle cx="265" cy="142" r="6" fill="white"/>
<circle cx="190" cy="198" r="6" fill="white"/>
<circle cx="265" cy="198" r="6" fill="white"/>
<circle cx="190" cy="254" r="6" fill="white"/>
<circle cx="265" cy="254" r="6" fill="white"/>
<circle cx="190" cy="310" r="6" fill="white"/>
<circle cx="265" cy="310" r="6" fill="white"/>
<circle cx="190" cy="366" r="6" fill="white"/>
<circle cx="265" cy="366" r="6" fill="white"/>
<circle cx="115" cy="170" r="6" fill="white"/>
<circle cx="115" cy="226" r="6" fill="white"/>
<circle cx="115" cy="282" r="6" fill="white"/>
<circle cx="115" cy="338" r="6" fill="white"/>
<circle cx="115" cy="394" r="6" fill="white"/>
<circle cx="190" cy="170" r="6" fill="white"/>
<circle cx="265" cy="170" r="6" fill="white"/>
<circle cx="190" cy="226" r="6" fill="white"/>
<circle cx="265" cy="226" r="6" fill="white"/>
<circle cx="190" cy="282" r="6" fill="white"/>
<circle cx="265" cy="282" r="6" fill="white"/>
<circle cx="190" cy="338" r="6" fill="white"/>
<circle cx="265" cy="338" r="6" fill="white"/>
<circle cx="190" cy="394" r="6" fill="white"/>
<circle cx="265" cy="394" r="6" fill="white"/>
<circle cx="140" cy="142" r="6" fill="white"/>
<circle cx="140" cy="198" r="6" fill="white"/>
<circle cx="140" cy="254" r="6" fill="white"/>
<circle cx="140" cy="310" r="6" fill="white"/>
<circle cx="140" cy="366" r="6" fill="white"/>
<circle cx="215" cy="142" r="6" fill="white"/>
<circle cx="290" cy="142" r="6" fill="white"/>
<circle cx="215" cy="198" r="6" fill="white"/>
<circle cx="290" cy="198" r="6" fill="white"/>
<circle cx="215" cy="254" r="6" fill="white"/>
<circle cx="290" cy="254" r="6" fill="white"/>
<circle cx="215" cy="310" r="6" fill="white"/>
<circle cx="290" cy="310" r="6" fill="white"/>
<circle cx="215" cy="366" r="6" fill="white"/>
<circle cx="290" cy="366" r="6" fill="white"/>
<circle cx="140" cy="170" r="6" fill="white"/>
<circle cx="140" cy="226" r="6" fill="white"/>
<circle cx="140" cy="282" r="6" fill="white"/>
<circle cx="140" cy="338" r="6" fill="white"/>
<circle cx="140" cy="394" r="6" fill="white"/>
<circle cx="215" cy="170" r="6" fill="white"/>
<circle cx="290" cy="170" r="6" fill="white"/>
<circle cx="215" cy="226" r="6" fill="white"/>
<circle cx="290" cy="226" r="6" fill="white"/>
<circle cx="215" cy="282" r="6" fill="white"/>
<circle cx="290" cy="282" r="6" fill="white"/>
<circle cx="215" cy="338" r="6" fill="white"/>
<circle cx="290" cy="338" r="6" fill="white"/>
<circle cx="215" cy="394" r="6" fill="white"/>
<circle cx="290" cy="394" r="6" fill="white"/>
</g>
</svg>
