<svg width="174" height="131" viewBox="0 0 174 131" fill="none" xmlns="http://www.w3.org/2000/svg">
    <g opacity="0.2">
        <circle cx="3.70455" cy="127.19" r="3.70455" transform="rotate(-90 3.70455 127.19)" fill="#C19ACE"/>
        <circle cx="40.5229" cy="127.19" r="3.70455" transform="rotate(-90 40.5229 127.19)" fill="#C19ACE"/>
        <circle cx="77.3413" cy="127.19" r="3.70455" transform="rotate(-90 77.3413 127.19)" fill="#C19ACE"/>
        <circle cx="114.159" cy="127.19" r="3.70455" transform="rotate(-90 114.159 127.19)" fill="#C19ACE"/>
        <circle cx="150.977" cy="127.19" r="3.70455" transform="rotate(-90 150.977 127.19)" fill="#C19ACE"/>
        <circle cx="3.70455" cy="80.8833" r="3.70455" transform="rotate(-90 3.70455 80.8833)" fill="#C19ACE"/>
        <circle cx="3.70455" cy="34.5767" r="3.70455" transform="rotate(-90 3.70455 34.5767)" fill="#C19ACE"/>
        <circle cx="40.5229" cy="80.8833" r="3.70455" transform="rotate(-90 40.5229 80.8833)" fill="#C19ACE"/>
        <circle cx="40.5229" cy="34.5767" r="3.70455" transform="rotate(-90 40.5229 34.5767)" fill="#C19ACE"/>
        <circle cx="77.3413" cy="80.8833" r="3.70455" transform="rotate(-90 77.3413 80.8833)" fill="#C19ACE"/>
        <circle cx="77.3413" cy="34.5767" r="3.70455" transform="rotate(-90 77.3413 34.5767)" fill="#C19ACE"/>
        <circle cx="114.159" cy="80.8833" r="3.70455" transform="rotate(-90 114.159 80.8833)" fill="#C19ACE"/>
        <circle cx="114.159" cy="34.5767" r="3.70455" transform="rotate(-90 114.159 34.5767)" fill="#C19ACE"/>
        <circle cx="150.977" cy="80.8833" r="3.70455" transform="rotate(-90 150.977 80.8833)" fill="#C19ACE"/>
        <circle cx="150.977" cy="34.5767" r="3.70455" transform="rotate(-90 150.977 34.5767)" fill="#C19ACE"/>
        <circle cx="22.1137" cy="127.19" r="3.70455" transform="rotate(-90 22.1137 127.19)" fill="#C19ACE"/>
        <circle cx="58.9321" cy="127.19" r="3.70455" transform="rotate(-90 58.9321 127.19)" fill="#C19ACE"/>
        <circle cx="95.7504" cy="127.19" r="3.70455" transform="rotate(-90 95.7504 127.19)" fill="#C19ACE"/>
        <circle cx="132.568" cy="127.19" r="3.70455" transform="rotate(-90 132.568 127.19)" fill="#C19ACE"/>
        <circle cx="169.386" cy="127.19" r="3.70455" transform="rotate(-90 169.386 127.19)" fill="#C19ACE"/>
        <circle cx="22.1137" cy="80.8833" r="3.70455" transform="rotate(-90 22.1137 80.8833)" fill="#C19ACE"/>
        <circle cx="22.1137" cy="34.5767" r="3.70455" transform="rotate(-90 22.1137 34.5767)" fill="#C19ACE"/>
        <circle cx="58.9321" cy="80.8833" r="3.70455" transform="rotate(-90 58.9321 80.8833)" fill="#C19ACE"/>
        <circle cx="58.9321" cy="34.5767" r="3.70455" transform="rotate(-90 58.9321 34.5767)" fill="#C19ACE"/>
        <circle cx="95.7504" cy="80.8833" r="3.70455" transform="rotate(-90 95.7504 80.8833)" fill="#C19ACE"/>
        <circle cx="95.7504" cy="34.5767" r="3.70455" transform="rotate(-90 95.7504 34.5767)" fill="#C19ACE"/>
        <circle cx="132.568" cy="80.8833" r="3.70455" transform="rotate(-90 132.568 80.8833)" fill="#C19ACE"/>
        <circle cx="132.568" cy="34.5767" r="3.70455" transform="rotate(-90 132.568 34.5767)" fill="#C19ACE"/>
        <circle cx="169.386" cy="80.8833" r="3.70455" transform="rotate(-90 169.386 80.8833)" fill="#C19ACE"/>
        <circle cx="169.386" cy="34.5767" r="3.70455" transform="rotate(-90 169.386 34.5767)" fill="#C19ACE"/>
        <circle cx="3.70455" cy="111.754" r="3.70455" transform="rotate(-90 3.70455 111.754)" fill="#C19ACE"/>
        <circle cx="40.5229" cy="111.754" r="3.70455" transform="rotate(-90 40.5229 111.754)" fill="#C19ACE"/>
        <circle cx="77.3413" cy="111.754" r="3.70455" transform="rotate(-90 77.3413 111.754)" fill="#C19ACE"/>
        <circle cx="114.159" cy="111.754" r="3.70455" transform="rotate(-90 114.159 111.754)" fill="#C19ACE"/>
        <circle cx="150.977" cy="111.754" r="3.70455" transform="rotate(-90 150.977 111.754)" fill="#C19ACE"/>
        <circle cx="3.70455" cy="65.4478" r="3.70455" transform="rotate(-90 3.70455 65.4478)" fill="#C19ACE"/>
        <circle cx="3.70455" cy="19.1412" r="3.70455" transform="rotate(-90 3.70455 19.1412)" fill="#C19ACE"/>
        <circle cx="40.5229" cy="65.4478" r="3.70455" transform="rotate(-90 40.5229 65.4478)" fill="#C19ACE"/>
        <circle cx="40.5229" cy="19.1412" r="3.70455" transform="rotate(-90 40.5229 19.1412)" fill="#C19ACE"/>
        <circle cx="77.3413" cy="65.4478" r="3.70455" transform="rotate(-90 77.3413 65.4478)" fill="#C19ACE"/>
        <circle cx="77.3413" cy="19.1412" r="3.70455" transform="rotate(-90 77.3413 19.1412)" fill="#C19ACE"/>
        <circle cx="114.159" cy="65.4478" r="3.70455" transform="rotate(-90 114.159 65.4478)" fill="#C19ACE"/>
        <circle cx="114.159" cy="19.1412" r="3.70455" transform="rotate(-90 114.159 19.1412)" fill="#C19ACE"/>
        <circle cx="150.977" cy="65.4478" r="3.70455" transform="rotate(-90 150.977 65.4478)" fill="#C19ACE"/>
        <circle cx="150.977" cy="19.1412" r="3.70455" transform="rotate(-90 150.977 19.1412)" fill="#C19ACE"/>
        <circle cx="22.1137" cy="111.754" r="3.70455" transform="rotate(-90 22.1137 111.754)" fill="#C19ACE"/>
        <circle cx="58.9321" cy="111.754" r="3.70455" transform="rotate(-90 58.9321 111.754)" fill="#C19ACE"/>
        <circle cx="95.7504" cy="111.754" r="3.70455" transform="rotate(-90 95.7504 111.754)" fill="#C19ACE"/>
        <circle cx="132.568" cy="111.754" r="3.70455" transform="rotate(-90 132.568 111.754)" fill="#C19ACE"/>
        <circle cx="169.386" cy="111.754" r="3.70455" transform="rotate(-90 169.386 111.754)" fill="#C19ACE"/>
        <circle cx="22.1137" cy="65.4478" r="3.70455" transform="rotate(-90 22.1137 65.4478)" fill="#C19ACE"/>
        <circle cx="22.1137" cy="19.1412" r="3.70455" transform="rotate(-90 22.1137 19.1412)" fill="#C19ACE"/>
        <circle cx="58.9321" cy="65.4478" r="3.70455" transform="rotate(-90 58.9321 65.4478)" fill="#C19ACE"/>
        <circle cx="58.9321" cy="19.1412" r="3.70455" transform="rotate(-90 58.9321 19.1412)" fill="#C19ACE"/>
        <circle cx="95.7504" cy="65.4478" r="3.70455" transform="rotate(-90 95.7504 65.4478)" fill="#C19ACE"/>
        <circle cx="95.7504" cy="19.1412" r="3.70455" transform="rotate(-90 95.7504 19.1412)" fill="#C19ACE"/>
        <circle cx="132.568" cy="65.4478" r="3.70455" transform="rotate(-90 132.568 65.4478)" fill="#C19ACE"/>
        <circle cx="132.568" cy="19.1412" r="3.70455" transform="rotate(-90 132.568 19.1412)" fill="#C19ACE"/>
        <circle cx="169.386" cy="65.4478" r="3.70455" transform="rotate(-90 169.386 65.4478)" fill="#C19ACE"/>
        <circle cx="169.386" cy="19.1412" r="3.70455" transform="rotate(-90 169.386 19.1412)" fill="#C19ACE"/>
        <circle cx="3.70455" cy="96.3189" r="3.70455" transform="rotate(-90 3.70455 96.3189)" fill="#C19ACE"/>
        <circle cx="40.5229" cy="96.3189" r="3.70455" transform="rotate(-90 40.5229 96.3189)" fill="#C19ACE"/>
        <circle cx="77.3413" cy="96.3189" r="3.70455" transform="rotate(-90 77.3413 96.3189)" fill="#C19ACE"/>
        <circle cx="114.159" cy="96.3189" r="3.70455" transform="rotate(-90 114.159 96.3189)" fill="#C19ACE"/>
        <circle cx="150.977" cy="96.3189" r="3.70455" transform="rotate(-90 150.977 96.3189)" fill="#C19ACE"/>
        <circle cx="3.70455" cy="50.0123" r="3.70455" transform="rotate(-90 3.70455 50.0123)" fill="#C19ACE"/>
        <circle cx="3.70455" cy="3.70561" r="3.70455" transform="rotate(-90 3.70455 3.70561)" fill="#C19ACE"/>
        <circle cx="40.5229" cy="50.0123" r="3.70455" transform="rotate(-90 40.5229 50.0123)" fill="#C19ACE"/>
        <circle cx="40.5229" cy="3.70561" r="3.70455" transform="rotate(-90 40.5229 3.70561)" fill="#C19ACE"/>
        <circle cx="77.3413" cy="50.0123" r="3.70455" transform="rotate(-90 77.3413 50.0123)" fill="#C19ACE"/>
        <circle cx="77.3413" cy="3.70561" r="3.70455" transform="rotate(-90 77.3413 3.70561)" fill="#C19ACE"/>
        <circle cx="114.159" cy="50.0123" r="3.70455" transform="rotate(-90 114.159 50.0123)" fill="#C19ACE"/>
        <circle cx="114.159" cy="3.70561" r="3.70455" transform="rotate(-90 114.159 3.70561)" fill="#C19ACE"/>
        <circle cx="150.977" cy="50.0123" r="3.70455" transform="rotate(-90 150.977 50.0123)" fill="#C19ACE"/>
        <circle cx="150.977" cy="3.70561" r="3.70455" transform="rotate(-90 150.977 3.70561)" fill="#C19ACE"/>
        <circle cx="22.1137" cy="96.3189" r="3.70455" transform="rotate(-90 22.1137 96.3189)" fill="#C19ACE"/>
        <circle cx="58.9321" cy="96.3189" r="3.70455" transform="rotate(-90 58.9321 96.3189)" fill="#C19ACE"/>
        <circle cx="95.7504" cy="96.3189" r="3.70455" transform="rotate(-90 95.7504 96.3189)" fill="#C19ACE"/>
        <circle cx="132.568" cy="96.3189" r="3.70455" transform="rotate(-90 132.568 96.3189)" fill="#C19ACE"/>
        <circle cx="169.386" cy="96.3189" r="3.70455" transform="rotate(-90 169.386 96.3189)" fill="#C19ACE"/>
        <circle cx="22.1137" cy="50.0123" r="3.70455" transform="rotate(-90 22.1137 50.0123)" fill="#C19ACE"/>
        <circle cx="22.1137" cy="3.70561" r="3.70455" transform="rotate(-90 22.1137 3.70561)" fill="#C19ACE"/>
        <circle cx="58.9321" cy="50.0123" r="3.70455" transform="rotate(-90 58.9321 50.0123)" fill="#C19ACE"/>
        <circle cx="58.9321" cy="3.70561" r="3.70455" transform="rotate(-90 58.9321 3.70561)" fill="#C19ACE"/>
        <circle cx="95.7504" cy="50.0123" r="3.70455" transform="rotate(-90 95.7504 50.0123)" fill="#C19ACE"/>
        <circle cx="95.7504" cy="3.70561" r="3.70455" transform="rotate(-90 95.7504 3.70561)" fill="#C19ACE"/>
        <circle cx="132.568" cy="50.0123" r="3.70455" transform="rotate(-90 132.568 50.0123)" fill="#C19ACE"/>
        <circle cx="132.568" cy="3.70561" r="3.70455" transform="rotate(-90 132.568 3.70561)" fill="#C19ACE"/>
        <circle cx="169.386" cy="50.0123" r="3.70455" transform="rotate(-90 169.386 50.0123)" fill="#C19ACE"/>
        <circle cx="169.386" cy="3.70561" r="3.70455" transform="rotate(-90 169.386 3.70561)" fill="#C19ACE"/>
    </g>
</svg>
