<svg width="136" height="169" viewBox="0 0 136 169" fill="none" xmlns="http://www.w3.org/2000/svg">
    <g opacity="0.4">
        <circle cx="3.84091" cy="3.84091" r="3.84091" fill="white"/>
        <circle cx="3.84091" cy="39.6886" r="3.84091" fill="white"/>
        <circle cx="3.84091" cy="75.5382" r="3.84091" fill="white"/>
        <circle cx="3.84091" cy="111.386" r="3.84091" fill="white"/>
        <circle cx="3.84091" cy="147.235" r="3.84091" fill="white"/>
        <circle cx="51.8526" cy="3.84091" r="3.84091" fill="white"/>
        <circle cx="99.8634" cy="3.84091" r="3.84091" fill="white"/>
        <circle cx="51.8526" cy="39.6886" r="3.84091" fill="white"/>
        <circle cx="99.8634" cy="39.6886" r="3.84091" fill="white"/>
        <circle cx="51.8526" cy="75.5382" r="3.84091" fill="white"/>
        <circle cx="99.8634" cy="75.5382" r="3.84091" fill="white"/>
        <circle cx="51.8526" cy="111.386" r="3.84091" fill="white"/>
        <circle cx="99.8634" cy="111.386" r="3.84091" fill="white"/>
        <circle cx="51.8526" cy="147.235" r="3.84091" fill="white"/>
        <circle cx="99.8634" cy="147.235" r="3.84091" fill="white"/>
        <circle cx="3.84091" cy="21.7647" r="3.84091" fill="white"/>
        <circle cx="3.84091" cy="57.6143" r="3.84091" fill="white"/>
        <circle cx="3.84091" cy="93.462" r="3.84091" fill="white"/>
        <circle cx="3.84091" cy="129.31" r="3.84091" fill="white"/>
        <circle cx="3.84091" cy="165.159" r="3.84091" fill="white"/>
        <circle cx="51.8526" cy="21.7647" r="3.84091" fill="white"/>
        <circle cx="99.8634" cy="21.7647" r="3.84091" fill="white"/>
        <circle cx="51.8526" cy="57.6143" r="3.84091" fill="white"/>
        <circle cx="99.8634" cy="57.6143" r="3.84091" fill="white"/>
        <circle cx="51.8526" cy="93.462" r="3.84091" fill="white"/>
        <circle cx="99.8634" cy="93.462" r="3.84091" fill="white"/>
        <circle cx="51.8526" cy="129.31" r="3.84091" fill="white"/>
        <circle cx="99.8634" cy="129.31" r="3.84091" fill="white"/>
        <circle cx="51.8526" cy="165.159" r="3.84091" fill="white"/>
        <circle cx="99.8634" cy="165.159" r="3.84091" fill="white"/>
        <circle cx="19.8448" cy="3.84091" r="3.84091" fill="white"/>
        <circle cx="19.8448" cy="39.6886" r="3.84091" fill="white"/>
        <circle cx="19.8448" cy="75.5382" r="3.84091" fill="white"/>
        <circle cx="19.8448" cy="111.386" r="3.84091" fill="white"/>
        <circle cx="19.8448" cy="147.235" r="3.84091" fill="white"/>
        <circle cx="67.8565" cy="3.84091" r="3.84091" fill="white"/>
        <circle cx="115.867" cy="3.84091" r="3.84091" fill="white"/>
        <circle cx="67.8565" cy="39.6886" r="3.84091" fill="white"/>
        <circle cx="115.867" cy="39.6886" r="3.84091" fill="white"/>
        <circle cx="67.8565" cy="75.5382" r="3.84091" fill="white"/>
        <circle cx="115.867" cy="75.5382" r="3.84091" fill="white"/>
        <circle cx="67.8565" cy="111.386" r="3.84091" fill="white"/>
        <circle cx="115.867" cy="111.386" r="3.84091" fill="white"/>
        <circle cx="67.8565" cy="147.235" r="3.84091" fill="white"/>
        <circle cx="115.867" cy="147.235" r="3.84091" fill="white"/>
        <circle cx="19.8448" cy="21.7647" r="3.84091" fill="white"/>
        <circle cx="19.8448" cy="57.6143" r="3.84091" fill="white"/>
        <circle cx="19.8448" cy="93.462" r="3.84091" fill="white"/>
        <circle cx="19.8448" cy="129.31" r="3.84091" fill="white"/>
        <circle cx="19.8448" cy="165.159" r="3.84091" fill="white"/>
        <circle cx="67.8565" cy="21.7647" r="3.84091" fill="white"/>
        <circle cx="115.867" cy="21.7647" r="3.84091" fill="white"/>
        <circle cx="67.8565" cy="57.6143" r="3.84091" fill="white"/>
        <circle cx="115.867" cy="57.6143" r="3.84091" fill="white"/>
        <circle cx="67.8565" cy="93.462" r="3.84091" fill="white"/>
        <circle cx="115.867" cy="93.462" r="3.84091" fill="white"/>
        <circle cx="67.8565" cy="129.31" r="3.84091" fill="white"/>
        <circle cx="115.867" cy="129.31" r="3.84091" fill="white"/>
        <circle cx="67.8565" cy="165.159" r="3.84091" fill="white"/>
        <circle cx="115.867" cy="165.159" r="3.84091" fill="white"/>
        <circle cx="35.8487" cy="3.84091" r="3.84091" fill="white"/>
        <circle cx="35.8487" cy="39.6886" r="3.84091" fill="white"/>
        <circle cx="35.8487" cy="75.5382" r="3.84091" fill="white"/>
        <circle cx="35.8487" cy="111.386" r="3.84091" fill="white"/>
        <circle cx="35.8487" cy="147.235" r="3.84091" fill="white"/>
        <circle cx="83.8595" cy="3.84091" r="3.84091" fill="white"/>
        <circle cx="131.871" cy="3.84091" r="3.84091" fill="white"/>
        <circle cx="83.8595" cy="39.6886" r="3.84091" fill="white"/>
        <circle cx="131.871" cy="39.6886" r="3.84091" fill="white"/>
        <circle cx="83.8595" cy="75.5382" r="3.84091" fill="white"/>
        <circle cx="131.871" cy="75.5382" r="3.84091" fill="white"/>
        <circle cx="83.8595" cy="111.386" r="3.84091" fill="white"/>
        <circle cx="131.871" cy="111.386" r="3.84091" fill="white"/>
        <circle cx="83.8595" cy="147.235" r="3.84091" fill="white"/>
        <circle cx="131.871" cy="147.235" r="3.84091" fill="white"/>
        <circle cx="35.8487" cy="21.7647" r="3.84091" fill="white"/>
        <circle cx="35.8487" cy="57.6143" r="3.84091" fill="white"/>
        <circle cx="35.8487" cy="93.462" r="3.84091" fill="white"/>
        <circle cx="35.8487" cy="129.31" r="3.84091" fill="white"/>
        <circle cx="35.8487" cy="165.159" r="3.84091" fill="white"/>
        <circle cx="83.8595" cy="21.7647" r="3.84091" fill="white"/>
        <circle cx="131.871" cy="21.7647" r="3.84091" fill="white"/>
        <circle cx="83.8595" cy="57.6143" r="3.84091" fill="white"/>
        <circle cx="131.871" cy="57.6143" r="3.84091" fill="white"/>
        <circle cx="83.8595" cy="93.462" r="3.84091" fill="white"/>
        <circle cx="131.871" cy="93.462" r="3.84091" fill="white"/>
        <circle cx="83.8595" cy="129.31" r="3.84091" fill="white"/>
        <circle cx="131.871" cy="129.31" r="3.84091" fill="white"/>
        <circle cx="83.8595" cy="165.159" r="3.84091" fill="white"/>
        <circle cx="131.871" cy="165.159" r="3.84091" fill="white"/>
    </g>
</svg>
